<svg xmlns="http://www.w3.org/2000/svg" xmlns:xlink="http://www.w3.org/1999/xlink" width="44.552mm" height="42.901mm" viewBox="4021.5 3156.6 175.4 168.9"><title></title><style type="text/css">
*[layerid="1"] {stroke:#FF0000;fill:#FF0000;}
*[layerid="2"] {stroke:#0000FF;fill:#0000FF;}
*[layerid="3"] {stroke:#FFCC00;fill:#FFCC00;}
*[layerid="4"] {stroke:#66CC33;fill:#66CC33;}
*[layerid="5"] {stroke:#808080;fill:#808080;}
*[layerid="6"] {stroke:#800000;fill:#800000;}
*[layerid="7"] {stroke:#800080;fill:#800080;stroke-opacity:0.7;fill-opacity:0.7;}
*[layerid="8"] {stroke:#AA00FF;fill:#AA00FF;stroke-opacity:0.7;fill-opacity:0.7;}
*[layerid="9"] {stroke:#6464FF;fill:#6464FF;}
*[layerid="10"] {stroke:#FF00FF;fill:#FF00FF;}
*[layerid="11"] {stroke:#C0C0C0;fill:#C0C0C0;}
*[layerid="12"] {stroke:#FFFFFF;fill:#FFFFFF;}
*[layerid="13"] {stroke:#33CC99;fill:#33CC99;}
*[layerid="14"] {stroke:#5555FF;fill:#5555FF;}
*[layerid="15"] {stroke:#F022F0;fill:#F022F0;}
*[layerid="19"] {stroke:#66CCFF;fill:#66CCFF;}
*[layerid="21"] {stroke:#999966;fill:#999966;}
*[layerid="22"] {stroke:#008000;fill:#008000;}
*[layerid="23"] {stroke:#00FF00;fill:#00FF00;}
*[layerid="24"] {stroke:#BC8E00;fill:#BC8E00;}
*[layerid="25"] {stroke:#70DBFA;fill:#70DBFA;}
*[layerid="26"] {stroke:#00CC66;fill:#00CC66;}
*[layerid="27"] {stroke:#9966FF;fill:#9966FF;}
*[layerid="28"] {stroke:#800080;fill:#800080;}
*[layerid="29"] {stroke:#008080;fill:#008080;}
*[layerid="30"] {stroke:#15935F;fill:#15935F;}
*[layerid="31"] {stroke:#000080;fill:#000080;}
*[layerid="32"] {stroke:#00B400;fill:#00B400;}
*[layerid="33"] {stroke:#2E4756;fill:#2E4756;}
*[layerid="34"] {stroke:#99842F;fill:#99842F;}
*[layerid="35"] {stroke:#FFFFAA;fill:#FFFFAA;}
*[layerid="36"] {stroke:#99842F;fill:#99842F;}
*[layerid="37"] {stroke:#2E4756;fill:#2E4756;}
*[layerid="38"] {stroke:#3535FF;fill:#3535FF;}
*[layerid="39"] {stroke:#8000BC;fill:#8000BC;}
*[layerid="40"] {stroke:#43AE5F;fill:#43AE5F;}
*[layerid="41"] {stroke:#C3ECCE;fill:#C3ECCE;}
*[layerid="42"] {stroke:#728978;fill:#728978;}
*[layerid="43"] {stroke:#39503F;fill:#39503F;}
*[layerid="44"] {stroke:#0C715D;fill:#0C715D;}
*[layerid="45"] {stroke:#5A8A80;fill:#5A8A80;}
*[layerid="46"] {stroke:#2B937E;fill:#2B937E;}
*[layerid="47"] {stroke:#23999D;fill:#23999D;}
*[layerid="48"] {stroke:#45B4E3;fill:#45B4E3;}
*[layerid="49"] {stroke:#215DA1;fill:#215DA1;}
*[layerid="50"] {stroke:#4564D7;fill:#4564D7;}
*[layerid="51"] {stroke:#6969E9;fill:#6969E9;}
*[layerid="52"] {stroke:#9069E9;fill:#9069E9;}
*[layerid="99"] {stroke:#00CCCC;fill:#00CCCC;stroke-opacity:0.6;fill-opacity:0.6;}
*[layerid="100"] {stroke:#CC9999;fill:#CC9999;}
*[layerid="101"] {stroke:#66FFCC;fill:#66FFCC;}
*[layerid="Hole"] {stroke:#222222;fill:#222222;}
*[layerid="DRCError"] {stroke:#FAD609;fill:#FAD609;}
*[fill="none"] {fill: none;}
*[stroke="none"] {stroke: none;}
path, polyline, polygon, line {stroke-linecap:round;}
g[c_partid="part_pad"][layerid="1"] ellipse:not([c_etype="pad_outer"]) {fill:#FF0000;}
g[c_partid="part_pad"][layerid="1"] polygon:not([c_etype="pad_outer"]) {fill:#FF0000;}
g[c_partid="part_pad"][layerid="1"] polyline:not([c_etype="pad_outer"]) {stroke:#FF0000;}
g[c_partid="part_pad"][layerid="2"] ellipse:not([c_etype="pad_outer"]) {fill:#0000FF;}
g[c_partid="part_pad"][layerid="2"] polygon:not([c_etype="pad_outer"]) {fill:#0000FF;}
g[c_partid="part_pad"][layerid="2"] polyline:not([c_etype="pad_outer"]) {stroke:#0000FF;}
g[c_partid="part_pad"][layerid="11"] ellipse:not([c_etype="pad_outer"]) {fill:#C0C0C0;}
g[c_partid="part_pad"][layerid="11"] polygon:not([c_etype="pad_outer"]) {fill:#C0C0C0;}
g[c_partid="part_pad"][layerid="11"] polyline:not([c_etype="pad_outer"]) {stroke:#C0C0C0;}
g[c_partid="part_pad"][layerid="11"] circle {fill:#222222;}
g[c_partid="part_pad"][layerid="11"] > polyline:nth-of-type(2) {stroke:#222222;}
g[c_partid="part_pad"][layerid="11"][c_shape="ELLIPSE"]  polyline:nth-last-of-type(1) {stroke:#222222;}
g[c_partid="part_pad"][layerid="11"][c_shape="RECT"]  polyline:nth-last-of-type(1) {stroke:#222222;}
g[c_partid="part_pad"][layerid="11"][c_shape="POLYGON"]  polyline:nth-last-of-type(1) {stroke:#222222;}
g[c_partid="part_via"] > * + circle, #gCurParts g[c_partid="part_via"] > * + circle {fill:#222222;}
g[c_partid="part_pad"] > polygon[c_etype="pad_outer"], #gCurParts g[c_partid="part_pad"] > polygon[c_etype="pad_outer"] {stroke-linejoin: round;stroke-miterlimit: 100;}
g[c_partid="part_hole"] > circle {fill: #222222;}path, polyline, polygon {stroke-linejoin:round;}
rect, circle, ellipse, polyline, line, polygon, path {shape-rendering:crispEdges;}
</style>
<rect x="4021.5" y="3156.6" width="175.4" height="168.9" fill="#000000" stroke="none"/><path d="M 4062.73307 3262.61434 L 4062.58 3262.64479 4062.42693 3262.61434 4062.29716 3262.52763 4062.2142 3262.44468 4061.828 3262.15557 4061.40459 3261.92437 4060.95259 3261.75578 4060.48119 3261.65324 4060 3261.61882 4059.51881 3261.65324 4059.04741 3261.75578 4058.59541 3261.92437 4058.52095 3261.96503 4058.35778 3262.01294 4058.18946 3261.98874 4058.04641 3261.8968 4057.96129 3261.81168 4057.878 3261.68994 4057.84451 3261.54629 4057.86536 3261.40026 4057.97879 3261.06611 4058.0839 3260.53766 4058.11914 3260 4058.0839 3259.46234 4057.97879 3258.93389 4057.81052 3258.4382 4057.79034 3258.28069 4057.83303 3258.12774 4057.93187 3258.00346 4058.07128 3257.92742 4058.22929 3257.91162 4058.38099 3257.95855 4058.59541 3258.07563 4059.04741 3258.24422 4059.51881 3258.34676 4060 3258.38118 4060.48119 3258.34676 4060.95259 3258.24422 4061.40459 3258.07563 4061.828 3257.84443 4062.2142 3257.55532 4062.29716 3257.47237 4062.42693 3257.38566 4062.58 3257.35521 4062.73307 3257.38566 4062.86284 3257.47237 4062.94955 3257.60214 4062.98 3257.75521 4062.98 3262.24479 4062.94955 3262.39786 4062.86284 3262.52763 4062.73307 3262.61434 Z " stroke-width="0" layerid="1" attachedcopperid="gge1471" c_shapetype="line" id="gge1471_0" class=""></path><path d="M 4130.23307 3266.98105 L 4130.08 3267.0115 4128.97676 3267.0115 4128.83586 3266.98586 4128.71302 3266.91224 4128.50757 3266.73207 4128.05957 3266.43272 4127.57633 3266.19441 4127.06611 3266.02121 4126.53766 3265.9161 4126 3265.88086 4125.46234 3265.9161 4124.93389 3266.02121 4124.42367 3266.19441 4123.94043 3266.43272 4123.80444 3266.52358 4123.64972 3266.58526 4123.48329 3266.57857 4123.33401 3266.50468 4123.22778 3266.3764 4123.18299 3266.21597 4123.20743 3266.05121 4123.24422 3265.95259 4123.34676 3265.48119 4123.38118 3265 4123.34676 3264.51881 4123.24422 3264.04741 4123.20743 3263.94879 4123.18299 3263.78403 4123.22778 3263.6236 4123.33401 3263.49532 4123.48329 3263.42143 4123.64972 3263.41474 4123.80444 3263.47642 4123.94043 3263.56728 4124.42367 3263.80559 4124.93389 3263.97879 4125.46234 3264.0839 4126 3264.11914 4126.53766 3264.0839 4127.06611 3263.97879 4127.57633 3263.80559 4128.05957 3263.56728 4128.50757 3263.26793 4128.71302 3263.08776 4128.83586 3263.01414 4128.97676 3262.9885 4130.08 3262.9885 4130.23307 3263.01895 4130.36284 3263.10566 4130.44955 3263.23543 4130.48 3263.3885 4130.48 3266.6115 4130.44955 3266.76457 4130.36284 3266.89434 4130.23307 3266.98105 Z " stroke-width="0" layerid="1" attachedcopperid="gge1471" c_shapetype="line" id="gge1471_1" class=""></path><path d="M 4051.16414 3266.98586 L 4051.02324 3267.0115 4049.92 3267.0115 4049.76693 3266.98105 4049.63716 3266.89434 4049.55045 3266.76457 4049.52 3266.6115 4049.52 3263.3885 4049.55045 3263.23543 4049.63716 3263.10566 4049.76693 3263.01895 4049.92 3262.9885 4051.02324 3262.9885 4051.16414 3263.01414 4051.28698 3263.08776 4051.49243 3263.26793 4051.94043 3263.56728 4052.42367 3263.80559 4052.93389 3263.97879 4053.46234 3264.0839 4054 3264.11914 4054.53766 3264.0839 4055.06611 3263.97879 4055.40026 3263.86536 4055.54629 3263.84451 4055.68994 3263.878 4055.81168 3263.96129 4056.50511 3264.65471 4056.59705 3264.79777 4056.61882 3265 4056.65324 3265.48119 4056.75578 3265.95259 4056.79257 3266.05121 4056.81701 3266.21597 4056.77222 3266.3764 4056.66599 3266.50468 4056.51671 3266.57857 4056.35028 3266.58526 4056.19556 3266.52358 4056.05957 3266.43272 4055.57633 3266.19441 4055.06611 3266.02121 4054.53766 3265.9161 4054 3265.88086 4053.46234 3265.9161 4052.93389 3266.02121 4052.42367 3266.19441 4051.94043 3266.43272 4051.49243 3266.73207 4051.28698 3266.91224 4051.16414 3266.98586 Z " stroke-width="0" layerid="1" attachedcopperid="gge1471" c_shapetype="line" id="gge1471_2" class=""></path><path d="M 4049.92 3309.48 L 4049.76693 3309.44955 4049.63716 3309.36284 4049.55045 3309.23307 4049.52 3309.08 4049.52 3273.3885 4049.55045 3273.23543 4049.63716 3273.10566 4049.76693 3273.01895 4049.92 3272.9885 4051.02324 3272.9885 4051.16414 3273.01414 4051.28698 3273.08776 4051.49243 3273.26793 4051.94043 3273.56728 4052.42367 3273.80559 4052.93389 3273.97879 4053.46234 3274.0839 4054 3274.11914 4054.53766 3274.0839 4055.06611 3273.97879 4055.57633 3273.80559 4056.05957 3273.56728 4056.19556 3273.47642 4056.35028 3273.41474 4056.51671 3273.42143 4056.66599 3273.49532 4056.77222 3273.6236 4056.81701 3273.78403 4056.79257 3273.94879 4056.75578 3274.04741 4056.65324 3274.51881 4056.61882 3275 4056.65324 3275.48119 4056.75578 3275.95259 4056.92437 3276.40459 4057.15557 3276.828 4057.44468 3277.2142 4057.7858 3277.55532 4058.172 3277.84443 4058.59541 3278.07563 4059.04741 3278.24422 4059.51881 3278.34676 4060 3278.38118 4060.48119 3278.34676 4060.95259 3278.24422 4061.40459 3278.07563 4061.828 3277.84443 4062.2142 3277.55532 4062.55532 3277.2142 4062.84443 3276.828 4063.07563 3276.40459 4063.24422 3275.95259 4063.34676 3275.48119 4063.38118 3275 4063.34676 3274.51881 4063.24422 3274.04741 4063.07563 3273.59541 4062.84443 3273.172 4062.55532 3272.7858 4062.2142 3272.44468 4061.94107 3272.24022 4061.83202 3272.11586 4061.7826 3271.95802 4061.80126 3271.79368 4061.88481 3271.65094 4062.01896 3271.5542 4062.18079 3271.52 4078.98035 3271.52 4079.29616 3271.4889 4079.58094 3271.40251 4079.84339 3271.26222 4080.0887 3271.06091 4082.56091 3268.5887 4082.76222 3268.34339 4082.90251 3268.08094 4082.9889 3267.79616 4083.02 3267.48035 4083.02 3256.51965 4082.97567 3256.02794 4083.03875 3255.8644 4083.1657 3255.74354 4083.33213 3255.68855 4083.50609 3255.71001 4083.65418 3255.80379 4089.86284 3262.01245 4089.94955 3262.14222 4089.98 3262.29529 4089.98 3275.72886 4089.94955 3275.88193 4089.86284 3276.0117 4089.80055 3276.07399 4089.57875 3276.39076 4089.41532 3276.74124 4089.31523 3277.11477 4089.28153 3277.5 4089.31523 3277.88523 4089.41532 3278.25876 4089.57875 3278.60924 4089.80055 3278.92601 4090.07399 3279.19945 4090.39076 3279.42125 4090.74124 3279.58468 4091.11477 3279.68477 4091.5 3279.71847 4091.88523 3279.68477 4092.25876 3279.58468 4092.60924 3279.42125 4092.92601 3279.19945 4093.19945 3278.92601 4093.42125 3278.60924 4093.58468 3278.25876 4093.68477 3277.88523 4093.71847 3277.5 4093.68477 3277.11477 4093.58468 3276.74124 4093.42125 3276.39076 4093.19945 3276.07399 4093.13716 3276.0117 4093.05045 3275.88193 4093.02 3275.72886 4093.02 3261.51965 4092.9889 3261.20384 4092.90251 3260.91906 4092.76222 3260.65661 4092.59705 3260.45534 4092.52133 3260.31037 4092.50997 3260.14721 4092.56486 3259.99315 4092.67683 3259.87393 4092.92601 3259.69945 4093.19945 3259.42601 4093.42125 3259.10924 4093.58468 3258.75876 4093.68477 3258.38523 4093.71847 3258 4093.68477 3257.61477 4093.58468 3257.24124 4093.42125 3256.89076 4093.19945 3256.57399 4093.13716 3256.5117 4093.05045 3256.38193 4093.02 3256.22886 4093.02 3234.79529 4093.05045 3234.64222 4093.13716 3234.51245 4093.82158 3233.82802 4093.93538 3233.74834 4094.06956 3233.71239 4094.38523 3233.68477 4094.75876 3233.58468 4095.10924 3233.42125 4095.42601 3233.19945 4095.69945 3232.92601 4095.92125 3232.60924 4096.08468 3232.25876 4096.18477 3231.88523 4096.21847 3231.5 4096.18477 3231.11477 4096.08468 3230.74124 4095.92125 3230.39076 4095.69945 3230.07399 4095.42601 3229.80055 4095.10924 3229.57875 4094.75876 3229.41532 4094.38523 3229.31523 4094 3229.28153 4093.61477 3229.31523 4093.24124 3229.41532 4092.89076 3229.57875 4092.57399 3229.80055 4092.30055 3230.07399 4092.07875 3230.39076 4091.91532 3230.74124 4091.81523 3231.11477 4091.78761 3231.43044 4091.75166 3231.56462 4091.67198 3231.67842 4090.43909 3232.9113 4090.23778 3233.15661 4090.09749 3233.41906 4090.0111 3233.70384 4089.98 3234.01965 4089.98 3256.22886 4089.94955 3256.38193 4089.86284 3256.5117 4089.80055 3256.57399 4089.63045 3256.81693 4089.50279 3256.93391 4089.33765 3256.98597 4089.16598 3256.96337 4089.01994 3256.87034 4081.32802 3249.17842 4081.24834 3249.06462 4081.21239 3248.93044 4081.18477 3248.61477 4081.08468 3248.24124 4080.92125 3247.89076 4080.69945 3247.57399 4080.42601 3247.30055 4080.10924 3247.07875 4079.75876 3246.91532 4079.38523 3246.81523 4079 3246.78153 4078.61477 3246.81523 4078.24124 3246.91532 4077.89076 3247.07875 4077.57399 3247.30055 4077.30055 3247.57399 4077.24766 3247.64953 4077.12502 3247.76356 4076.96644 3247.81739 4076.79972 3247.80159 4076.65408 3247.71891 4076.55506 3247.58386 4076.52 3247.4201 4076.52 3247.29529 4076.55045 3247.14222 4076.63716 3247.01245 4079.56091 3244.0887 4079.76222 3243.84339 4079.90251 3243.58094 4079.9889 3243.29616 4080.02 3242.98035 4080.02 3241.29529 4080.05045 3241.14222 4080.13716 3241.01245 4087.56091 3233.5887 4087.76222 3233.34339 4087.90251 3233.08094 4087.9889 3232.79616 4088.02 3232.48035 4088.02 3226.29529 4088.05045 3226.14222 4088.13716 3226.01245 4088.32158 3225.82802 4088.43538 3225.74834 4088.56956 3225.71239 4088.88523 3225.68477 4089.25876 3225.58468 4089.60924 3225.42125 4089.92601 3225.19945 4090.19945 3224.92601 4090.42125 3224.60924 4090.58468 3224.25876 4090.68477 3223.88523 4090.71847 3223.5 4090.68477 3223.11477 4090.58468 3222.74124 4090.42125 3222.39076 4090.19945 3222.07399 4089.92601 3221.80055 4089.60924 3221.57875 4089.25876 3221.41532 4088.88523 3221.31523 4088.5 3221.28153 4088.11477 3221.31523 4087.74124 3221.41532 4087.39076 3221.57875 4087.07399 3221.80055 4086.80055 3222.07399 4086.57875 3222.39076 4086.41532 3222.74124 4086.31523 3223.11477 4086.30622 3223.21779 4086.26187 3223.36891 4086.16262 3223.49121 4086.02385 3223.5657 4085.91906 3223.59749 4085.65661 3223.73778 4085.42657 3223.92657 4085.2292 3224.16705 4085.10276 3224.2691 4084.94616 3224.31244 4084.78524 3224.28991 4084.64656 3224.20524 4084.553 3224.07239 4084.52 3223.9133 4084.52 3220.01965 4084.4889 3219.70384 4084.40251 3219.41906 4084.26222 3219.15661 4084.06091 3218.9113 4081.82802 3216.67842 4081.74834 3216.56462 4081.71239 3216.43044 4081.68477 3216.11477 4081.58468 3215.74124 4081.42125 3215.39076 4081.19945 3215.07399 4080.92601 3214.80055 4080.60924 3214.57875 4080.25876 3214.41532 4079.88523 3214.31523 4079.5 3214.28153 4079.11477 3214.31523 4078.74124 3214.41532 4078.39076 3214.57875 4078.07399 3214.80055 4077.80055 3215.07399 4077.57875 3215.39076 4077.41532 3215.74124 4077.31523 3216.11477 4077.28153 3216.5 4077.31523 3216.88523 4077.41532 3217.25876 4077.57875 3217.60924 4077.80055 3217.92601 4078.07399 3218.19945 4078.39076 3218.42125 4078.74124 3218.58468 4079.11477 3218.68477 4079.43044 3218.71239 4079.56462 3218.74834 4079.67842 3218.82802 4081.36284 3220.51245 4081.44955 3220.64222 4081.48 3220.79529 4081.48 3227.72886 4081.44955 3227.88193 4081.36284 3228.0117 4081.30055 3228.07399 4081.07875 3228.39076 4080.91532 3228.74124 4080.81523 3229.11477 4080.78153 3229.5 4080.81523 3229.88523 4080.91532 3230.25876 4081.07875 3230.60924 4081.30055 3230.92601 4081.57399 3231.19945 4081.89076 3231.42125 4082.24124 3231.58468 4082.61477 3231.68477 4083 3231.71847 4083.38523 3231.68477 4083.75876 3231.58468 4084.10924 3231.42125 4084.35057 3231.25227 4084.51054 3231.18601 4084.68353 3231.19356 4084.83712 3231.27351 4084.94252 3231.41088 4084.98 3231.57993 4084.98 3231.70471 4084.94955 3231.85778 4084.86284 3231.98755 4077.52077 3239.32963 4077.391 3239.41634 4077.23792 3239.44678 4077.08485 3239.41634 4076.60924 3239.07875 4076.25876 3238.91532 4075.88523 3238.81523 4075.5 3238.78153 4075.11477 3238.81523 4074.74124 3238.91532 4074.39076 3239.07875 4074.07399 3239.30055 4073.80055 3239.57399 4073.57875 3239.89076 4073.41532 3240.24124 4073.31523 3240.61477 4073.28761 3240.93044 4073.25166 3241.06462 4073.17198 3241.17842 4070.43909 3243.9113 4070.23778 3244.15661 4070.09749 3244.41906 4070.0111 3244.70384 4069.98 3245.01965 4069.98 3261.72886 4069.94955 3261.88193 4069.86284 3262.0117 4069.80055 3262.07399 4069.57875 3262.39076 4069.41532 3262.74124 4069.31523 3263.11477 4069.28153 3263.5 4069.31523 3263.88523 4069.41532 3264.25876 4069.57875 3264.60924 4069.80055 3264.92601 4070.07399 3265.19945 4070.39076 3265.42125 4070.74124 3265.58468 4071.11477 3265.68477 4071.5 3265.71847 4071.88523 3265.68477 4072.25876 3265.58468 4072.60924 3265.42125 4072.92601 3265.19945 4073.19945 3264.92601 4073.42125 3264.60924 4073.58468 3264.25876 4073.68477 3263.88523 4073.71847 3263.5 4073.68477 3263.11477 4073.58468 3262.74124 4073.42125 3262.39076 4073.19945 3262.07399 4073.13716 3262.0117 4073.05045 3261.88193 4073.02 3261.72886 4073.02 3251.0867 4073.053 3250.92761 4073.14656 3250.79476 4073.28524 3250.71009 4073.44616 3250.68756 4073.60276 3250.7309 4073.7292 3250.83295 4073.93909 3251.0887 4079.86284 3257.01245 4079.94955 3257.14222 4079.98 3257.29529 4079.98 3266.70471 4079.94955 3266.85778 4079.86284 3266.98755 4078.48755 3268.36284 4078.35778 3268.44955 4078.20471 3268.48 4062.18079 3268.48 4062.01896 3268.4458 4061.88481 3268.34906 4061.80126 3268.20632 4061.7826 3268.04198 4061.83202 3267.88414 4061.94107 3267.75978 4062.2142 3267.55532 4062.55532 3267.2142 4062.84443 3266.828 4062.91308 3266.70228 4062.99245 3266.60042 4063.10015 3266.52915 4063.29616 3266.4889 4063.58094 3266.40251 4063.84339 3266.26222 4064.0887 3266.06091 4065.56091 3264.5887 4065.76222 3264.34339 4065.90251 3264.08094 4065.9889 3263.79616 4066.02 3263.48035 4066.02 3247.51965 4065.9889 3247.20384 4065.90251 3246.91906 4065.76222 3246.65661 4065.56091 3246.4113 4063.33382 3244.18422 4063.24189 3244.04116 4063.07563 3243.59541 4062.84443 3243.172 4062.55532 3242.7858 4062.2142 3242.44468 4061.828 3242.15557 4061.40459 3241.92437 4060.95259 3241.75578 4060.48119 3241.65324 4060 3241.61882 4059.51881 3241.65324 4059.04741 3241.75578 4058.59541 3241.92437 4058.172 3242.15557 4057.7858 3242.44468 4057.44468 3242.7858 4057.15557 3243.172 4056.92437 3243.59541 4056.75578 3244.04741 4056.65324 3244.51881 4056.61882 3245 4056.65111 3245.45146 4056.62935 3245.61307 4056.54489 3245.75257 4056.41178 3245.84676 4056.25213 3245.88 4055.8 3245.88 4055.8 3248.2 4058.22898 3248.2 4058.35537 3248.10987 4058.50657 3248.07465 4058.65979 3248.09964 4059.04741 3248.24422 4059.51881 3248.34676 4060 3248.38118 4060.48119 3248.34676 4060.95259 3248.24422 4061.40459 3248.07563 4061.828 3247.84443 4062.04626 3247.68104 4062.17328 3247.61746 4062.31451 3247.60228 4062.45214 3247.63741 4062.56881 3247.71842 4062.86284 3248.01245 4062.94955 3248.14222 4062.98 3248.29529 4062.98 3252.24479 4062.94955 3252.39786 4062.86284 3252.52763 4062.73307 3252.61434 4062.58 3252.64479 4062.42693 3252.61434 4062.29716 3252.52763 4062.2142 3252.44468 4061.828 3252.15557 4061.40459 3251.92437 4060.95259 3251.75578 4060.48119 3251.65324 4060 3251.61882 4059.51881 3251.65324 4059.04741 3251.75578 4058.65979 3251.90036 4058.50657 3251.92535 4058.35537 3251.89013 4058.22898 3251.8 4055.8 3251.8 4055.8 3254.12 4056.25213 3254.12 4056.41178 3254.15324 4056.54489 3254.24743 4056.62935 3254.38693 4056.65111 3254.54854 4056.61882 3255 4056.65324 3255.48119 4056.75578 3255.95259 4056.79257 3256.05121 4056.81701 3256.21597 4056.77222 3256.3764 4056.66599 3256.50468 4056.51671 3256.57857 4056.35028 3256.58526 4056.19556 3256.52358 4056.05957 3256.43272 4055.57633 3256.19441 4055.06611 3256.02121 4054.53766 3255.9161 4054 3255.88086 4053.46234 3255.9161 4052.93389 3256.02121 4052.42367 3256.19441 4051.94043 3256.43272 4051.49243 3256.73207 4051.28698 3256.91224 4051.16414 3256.98586 4051.02324 3257.0115 4049.92 3257.0115 4049.76693 3256.98105 4049.63716 3256.89434 4049.55045 3256.76457 4049.52 3256.6115 4049.52 3254.11556 4049.55045 3253.96248 4049.63716 3253.83271 4049.76693 3253.746 4049.92 3253.71556 4050.07307 3253.746 4050.20284 3253.83271 4050.26562 3253.89549 4050.45854 3254.01671 4050.67359 3254.09196 4050.92246 3254.12 4052.2 3254.12 4052.2 3251.8 4049.92 3251.8 4049.76693 3251.76955 4049.63716 3251.68284 4049.55045 3251.55307 4049.52 3251.4 4049.52 3248.6 4049.55045 3248.44693 4049.63716 3248.31716 4049.76693 3248.23045 4049.92 3248.2 4052.2 3248.2 4052.2 3245.88 4050.92246 3245.88 4050.67359 3245.90804 4050.45854 3245.98329 4050.26562 3246.10451 4050.20284 3246.16729 4050.07307 3246.254 4049.92 3246.28444 4049.76693 3246.254 4049.63716 3246.16729 4049.55045 3246.03752 4049.52 3245.88444 4049.52 3210.42 4049.55045 3210.26693 4049.63716 3210.13716 4049.76693 3210.05045 4049.92 3210.02 4130.08 3210.02 4130.23307 3210.05045 4130.36284 3210.13716 4130.44955 3210.26693 4130.48 3210.42 4130.48 3245.88444 4130.44955 3246.03752 4130.36284 3246.16729 4130.23307 3246.254 4130.08 3246.28444 4129.92693 3246.254 4129.79716 3246.16729 4129.73438 3246.10451 4129.54146 3245.98329 4129.32641 3245.90804 4129.07754 3245.88 4127.8 3245.88 4127.8 3248.2 4130.08 3248.2 4130.23307 3248.23045 4130.36284 3248.31716 4130.44955 3248.44693 4130.48 3248.6 4130.48 3251.4 4130.44955 3251.55307 4130.36284 3251.68284 4130.23307 3251.76955 4130.08 3251.8 4127.8 3251.8 4127.8 3254.12 4129.07754 3254.12 4129.32641 3254.09196 4129.54146 3254.01671 4129.73438 3253.89549 4129.79716 3253.83271 4129.92693 3253.746 4130.08 3253.71556 4130.23307 3253.746 4130.36284 3253.83271 4130.44955 3253.96248 4130.48 3254.11556 4130.48 3256.6115 4130.44955 3256.76457 4130.36284 3256.89434 4130.23307 3256.98105 4130.08 3257.0115 4128.97676 3257.0115 4128.83586 3256.98586 4128.71302 3256.91224 4128.50757 3256.73207 4128.05957 3256.43272 4127.57633 3256.19441 4127.06611 3256.02121 4126.53766 3255.9161 4126 3255.88086 4125.46234 3255.9161 4124.93389 3256.02121 4124.42367 3256.19441 4123.94043 3256.43272 4123.80444 3256.52358 4123.64972 3256.58526 4123.48329 3256.57857 4123.33401 3256.50468 4123.22778 3256.3764 4123.18299 3256.21597 4123.20743 3256.05121 4123.24422 3255.95259 4123.34676 3255.48119 4123.38118 3255 4123.34889 3254.54854 4123.37065 3254.38693 4123.45511 3254.24743 4123.58822 3254.15324 4123.74787 3254.12 4124.2 3254.12 4124.2 3251.8 4121.77102 3251.8 4121.64463 3251.89013 4121.49343 3251.92535 4121.34021 3251.90036 4120.95259 3251.75578 4120.48119 3251.65324 4120 3251.61882 4119.51881 3251.65324 4119.04741 3251.75578 4118.59541 3251.92437 4118.172 3252.15557 4117.7858 3252.44468 4117.44468 3252.7858 4117.15557 3253.172 4116.92437 3253.59541 4116.75578 3254.04741 4116.65324 3254.51881 4116.61882 3255 4116.65324 3255.48119 4116.75578 3255.95259 4116.92437 3256.40459 4117.15557 3256.828 4117.44468 3257.2142 4117.7858 3257.55532 4118.172 3257.84443 4118.59541 3258.07563 4119.04741 3258.24422 4119.51881 3258.34676 4120 3258.38118 4120.48119 3258.34676 4120.95259 3258.24422 4121.40459 3258.07563 4121.61901 3257.95855 4121.77071 3257.91162 4121.92872 3257.92742 4122.06813 3258.00346 4122.16697 3258.12774 4122.20966 3258.28069 4122.18948 3258.4382 4122.02121 3258.93389 4121.9161 3259.46234 4121.88086 3260 4121.9161 3260.53766 4122.02121 3261.06611 4122.18948 3261.5618 4122.20966 3261.71931 4122.16697 3261.87226 4122.06813 3261.99654 4121.92872 3262.07258 4121.77071 3262.08838 4121.61901 3262.04145 4121.40459 3261.92437 4120.95259 3261.75578 4120.48119 3261.65324 4120 3261.61882 4119.51881 3261.65324 4119.04741 3261.75578 4118.59541 3261.92437 4118.172 3262.15557 4117.7858 3262.44468 4117.44468 3262.7858 4117.15557 3263.172 4116.92437 3263.59541 4116.75578 3264.04741 4116.65324 3264.51881 4116.61882 3265 4116.65324 3265.48119 4116.75578 3265.95259 4116.92437 3266.40459 4117.15557 3266.828 4117.44468 3267.2142 4117.7858 3267.55532 4118.172 3267.84443 4118.59541 3268.07563 4119.04741 3268.24422 4119.51881 3268.34676 4120 3268.38118 4120.48119 3268.34676 4120.95259 3268.24422 4121.40459 3268.07563 4121.61901 3267.95855 4121.77071 3267.91162 4121.92872 3267.92742 4122.06813 3268.00346 4122.16697 3268.12774 4122.20966 3268.28069 4122.18948 3268.4382 4122.02121 3268.93389 4121.9161 3269.46234 4121.88086 3270 4121.9161 3270.53766 4122.02121 3271.06611 4122.18948 3271.5618 4122.20966 3271.71931 4122.16697 3271.87226 4122.06813 3271.99654 4121.92872 3272.07258 4121.77071 3272.08838 4121.61901 3272.04145 4121.40459 3271.92437 4120.95259 3271.75578 4120.48119 3271.65324 4120 3271.61882 4119.51881 3271.65324 4119.04741 3271.75578 4118.59541 3271.92437 4118.172 3272.15557 4117.7858 3272.44468 4117.44468 3272.7858 4117.15557 3273.172 4116.92437 3273.59541 4116.75578 3274.04741 4116.65324 3274.51881 4116.61882 3275 4116.65324 3275.48119 4116.75578 3275.95259 4116.92437 3276.40459 4117.15557 3276.828 4117.44468 3277.2142 4117.7858 3277.55532 4118.172 3277.84443 4118.59541 3278.07563 4119.04741 3278.24422 4119.51881 3278.34676 4120 3278.38118 4120.48119 3278.34676 4120.95259 3278.24422 4121.40459 3278.07563 4121.828 3277.84443 4122.2142 3277.55532 4122.55532 3277.2142 4122.84443 3276.828 4123.07563 3276.40459 4123.24422 3275.95259 4123.34676 3275.48119 4123.38118 3275 4123.34676 3274.51881 4123.24422 3274.04741 4123.20743 3273.94879 4123.18299 3273.78403 4123.22778 3273.6236 4123.33401 3273.49532 4123.48329 3273.42143 4123.64972 3273.41474 4123.80444 3273.47642 4123.94043 3273.56728 4124.42367 3273.80559 4124.93389 3273.97879 4125.46234 3274.0839 4126 3274.11914 4126.53766 3274.0839 4127.06611 3273.97879 4127.57633 3273.80559 4128.05957 3273.56728 4128.50757 3273.26793 4128.71302 3273.08776 4128.83586 3273.01414 4128.97676 3272.9885 4130.08 3272.9885 4130.23307 3273.01895 4130.36284 3273.10566 4130.44955 3273.23543 4130.48 3273.3885 4130.48 3309.08 4130.44955 3309.23307 4130.36284 3309.36284 4130.23307 3309.44955 4130.08 3309.48 4049.92 3309.48 Z M 4103 3302.71847 L 4103.38523 3302.68477 4103.75876 3302.58468 4104.10924 3302.42125 4104.42601 3302.19945 4104.69945 3301.92601 4104.92125 3301.60924 4105.08468 3301.25876 4105.18477 3300.88523 4105.21847 3300.5 4105.18477 3300.11477 4105.08468 3299.74124 4104.92125 3299.39076 4104.69945 3299.07399 4104.42601 3298.80055 4104.10924 3298.57875 4103.75876 3298.41532 4103.38523 3298.31523 4103.06956 3298.28761 4102.93538 3298.25166 4102.82158 3298.17198 4100.63716 3295.98755 4100.55045 3295.85778 4100.52 3295.70471 4100.52 3293.87624 4100.5518 3293.71994 4100.64214 3293.5885 4100.77665 3293.50281 4100.93396 3293.47648 4101.08905 3293.51371 4101.24124 3293.58468 4101.61477 3293.68477 4102 3293.71847 4102.38523 3293.68477 4102.75876 3293.58468 4103.10924 3293.42125 4103.42601 3293.19945 4103.69945 3292.92601 4103.92125 3292.60924 4104.08468 3292.25876 4104.18477 3291.88523 4104.21847 3291.5 4104.18477 3291.11477 4104.08468 3290.74124 4103.92125 3290.39076 4103.69945 3290.07399 4103.42601 3289.80055 4103.10924 3289.57875 4102.75876 3289.41532 4102.38523 3289.31523 4102 3289.28153 4101.61477 3289.31523 4101.24124 3289.41532 4101.08905 3289.48629 4100.93396 3289.52352 4100.77665 3289.49719 4100.64214 3289.4115 4100.5518 3289.28006 4100.52 3289.12376 4100.52 3261.27114 4100.55045 3261.11807 4100.63716 3260.9883 4100.69945 3260.92601 4100.92125 3260.60924 4101.08468 3260.25876 4101.18477 3259.88523 4101.21847 3259.5 4101.18477 3259.11477 4101.08468 3258.74124 4100.92125 3258.39076 4100.69945 3258.07399 4100.42601 3257.80055 4100.10924 3257.57875 4099.75876 3257.41532 4099.38523 3257.31523 4099 3257.28153 4098.61477 3257.31523 4098.24124 3257.41532 4097.89076 3257.57875 4097.57399 3257.80055 4097.30055 3258.07399 4097.07875 3258.39076 4096.91532 3258.74124 4096.81523 3259.11477 4096.78153 3259.5 4096.81523 3259.88523 4096.91532 3260.25876 4097.07875 3260.60924 4097.30055 3260.92601 4097.36284 3260.9883 4097.44955 3261.11807 4097.48 3261.27114 4097.48 3296.48035 4097.5111 3296.79616 4097.59749 3297.08094 4097.73778 3297.34339 4097.93909 3297.5887 4100.67198 3300.32158 4100.75166 3300.43538 4100.78761 3300.56956 4100.81523 3300.88523 4100.91532 3301.25876 4101.07875 3301.60924 4101.30055 3301.92601 4101.57399 3302.19945 4101.89076 3302.42125 4102.24124 3302.58468 4102.61477 3302.68477 4103 3302.71847 Z M 4120 3248.38118 L 4120.48119 3248.34676 4120.95259 3248.24422 4121.34021 3248.09964 4121.49343 3248.07465 4121.64463 3248.10987 4121.77102 3248.2 4124.2 3248.2 4124.2 3245.88 4123.74787 3245.88 4123.58822 3245.84676 4123.45511 3245.75257 4123.37065 3245.61307 4123.34889 3245.45146 4123.38118 3245 4123.34676 3244.51881 4123.24422 3244.04741 4123.07563 3243.59541 4122.84443 3243.172 4122.55532 3242.7858 4122.2142 3242.44468 4121.828 3242.15557 4121.40459 3241.92437 4120.95259 3241.75578 4120.48119 3241.65324 4120 3241.61882 4119.51881 3241.65324 4119.04741 3241.75578 4118.59541 3241.92437 4118.172 3242.15557 4117.7858 3242.44468 4117.44468 3242.7858 4117.15557 3243.172 4116.92437 3243.59541 4116.75578 3244.04741 4116.65324 3244.51881 4116.61882 3245 4116.65324 3245.48119 4116.75578 3245.95259 4116.92437 3246.40459 4117.15557 3246.828 4117.44468 3247.2142 4117.7858 3247.55532 4118.172 3247.84443 4118.59541 3248.07563 4119.04741 3248.24422 4119.51881 3248.34676 4120 3248.38118 Z M 4120 3298.38118 L 4120.48119 3298.34676 4120.95259 3298.24422 4121.40459 3298.07563 4121.828 3297.84443 4122.2142 3297.55532 4122.55532 3297.2142 4122.84443 3296.828 4123.07563 3296.40459 4123.24422 3295.95259 4123.34676 3295.48119 4123.38118 3295 4123.34676 3294.51881 4123.24422 3294.04741 4123.07563 3293.59541 4122.84443 3293.172 4122.55532 3292.7858 4122.2142 3292.44468 4121.828 3292.15557 4121.40459 3291.92437 4120.95259 3291.75578 4120.48119 3291.65324 4120 3291.61882 4119.51881 3291.65324 4119.04741 3291.75578 4118.59541 3291.92437 4118.172 3292.15557 4117.7858 3292.44468 4117.44468 3292.7858 4117.15557 3293.172 4116.92437 3293.59541 4116.75578 3294.04741 4116.65324 3294.51881 4116.61882 3295 4116.65324 3295.48119 4116.75578 3295.95259 4116.92437 3296.40459 4117.15557 3296.828 4117.44468 3297.2142 4117.7858 3297.55532 4118.172 3297.84443 4118.59541 3298.07563 4119.04741 3298.24422 4119.51881 3298.34676 4120 3298.38118 Z M 4120 3228.38118 L 4120.48119 3228.34676 4120.95259 3228.24422 4121.40459 3228.07563 4121.828 3227.84443 4122.2142 3227.55532 4122.55532 3227.2142 4122.84443 3226.828 4123.07563 3226.40459 4123.24422 3225.95259 4123.34676 3225.48119 4123.38118 3225 4123.34676 3224.51881 4123.24422 3224.04741 4123.07563 3223.59541 4122.84443 3223.172 4122.55532 3222.7858 4122.2142 3222.44468 4121.828 3222.15557 4121.40459 3221.92437 4120.95259 3221.75578 4120.48119 3221.65324 4120 3221.61882 4119.51881 3221.65324 4119.04741 3221.75578 4118.59541 3221.92437 4118.172 3222.15557 4117.7858 3222.44468 4117.44468 3222.7858 4117.15557 3223.172 4116.92437 3223.59541 4116.75578 3224.04741 4116.65324 3224.51881 4116.61882 3225 4116.65324 3225.48119 4116.75578 3225.95259 4116.92437 3226.40459 4117.15557 3226.828 4117.44468 3227.2142 4117.7858 3227.55532 4118.172 3227.84443 4118.59541 3228.07563 4119.04741 3228.24422 4119.51881 3228.34676 4120 3228.38118 Z M 4120 3288.38118 L 4120.48119 3288.34676 4120.95259 3288.24422 4121.40459 3288.07563 4121.828 3287.84443 4122.2142 3287.55532 4122.55532 3287.2142 4122.84443 3286.828 4123.07563 3286.40459 4123.24422 3285.95259 4123.34676 3285.48119 4123.38118 3285 4123.34676 3284.51881 4123.24422 3284.04741 4123.07563 3283.59541 4122.84443 3283.172 4122.55532 3282.7858 4122.2142 3282.44468 4121.828 3282.15557 4121.40459 3281.92437 4120.95259 3281.75578 4120.48119 3281.65324 4120 3281.61882 4119.51881 3281.65324 4119.04741 3281.75578 4118.59541 3281.92437 4118.172 3282.15557 4117.7858 3282.44468 4117.44468 3282.7858 4117.15557 3283.172 4116.92437 3283.59541 4116.75578 3284.04741 4116.65324 3284.51881 4116.61882 3285 4116.65324 3285.48119 4116.75578 3285.95259 4116.92437 3286.40459 4117.15557 3286.828 4117.44468 3287.2142 4117.7858 3287.55532 4118.172 3287.84443 4118.59541 3288.07563 4119.04741 3288.24422 4119.51881 3288.34676 4120 3288.38118 Z M 4119.51881 3238.34676 L 4120 3238.38118 4120.48119 3238.34676 4120.95259 3238.24422 4121.40459 3238.07563 4121.828 3237.84443 4122.2142 3237.55532 4122.55532 3237.2142 4122.84443 3236.828 4123.07563 3236.40459 4123.24422 3235.95259 4123.34676 3235.48119 4123.38118 3235 4123.34676 3234.51881 4123.24422 3234.04741 4123.07563 3233.59541 4122.84443 3233.172 4122.55532 3232.7858 4122.2142 3232.44468 4121.828 3232.15557 4121.40459 3231.92437 4120.95259 3231.75578 4120.48119 3231.65324 4120 3231.61882 4119.51881 3231.65324 4119.04741 3231.75578 4118.59541 3231.92437 4118.172 3232.15557 4117.7858 3232.44468 4117.44468 3232.7858 4117.15557 3233.172 4116.92437 3233.59541 4116.75578 3234.04741 4116.65324 3234.51881 4116.61882 3235 4116.65324 3235.48119 4116.75578 3235.95259 4116.92437 3236.40459 4117.15557 3236.828 4117.44468 3237.2142 4117.7858 3237.55532 4118.172 3237.84443 4118.59541 3238.07563 4119.04741 3238.24422 4119.51881 3238.34676 Z M 4060 3238.38118 L 4060.48119 3238.34676 4060.95259 3238.24422 4061.40459 3238.07563 4061.828 3237.84443 4062.2142 3237.55532 4062.55532 3237.2142 4062.84443 3236.828 4063.07563 3236.40459 4063.24422 3235.95259 4063.34676 3235.48119 4063.38118 3235 4063.34676 3234.51881 4063.24422 3234.04741 4063.07563 3233.59541 4062.84443 3233.172 4062.55532 3232.7858 4062.2142 3232.44468 4061.828 3232.15557 4061.40459 3231.92437 4060.95259 3231.75578 4060.48119 3231.65324 4060 3231.61882 4059.51881 3231.65324 4059.04741 3231.75578 4058.59541 3231.92437 4058.172 3232.15557 4057.7858 3232.44468 4057.44468 3232.7858 4057.15557 3233.172 4056.92437 3233.59541 4056.75578 3234.04741 4056.65324 3234.51881 4056.61882 3235 4056.65324 3235.48119 4056.75578 3235.95259 4056.92437 3236.40459 4057.15557 3236.828 4057.44468 3237.2142 4057.7858 3237.55532 4058.172 3237.84443 4058.59541 3238.07563 4059.04741 3238.24422 4059.51881 3238.34676 4060 3238.38118 Z M 4060 3288.38118 L 4060.48119 3288.34676 4060.95259 3288.24422 4061.40459 3288.07563 4061.828 3287.84443 4062.2142 3287.55532 4062.55532 3287.2142 4062.84443 3286.828 4063.07563 3286.40459 4063.24422 3285.95259 4063.34676 3285.48119 4063.38118 3285 4063.34676 3284.51881 4063.24422 3284.04741 4063.07563 3283.59541 4062.84443 3283.172 4062.55532 3282.7858 4062.2142 3282.44468 4061.828 3282.15557 4061.40459 3281.92437 4060.95259 3281.75578 4060.48119 3281.65324 4060 3281.61882 4059.51881 3281.65324 4059.04741 3281.75578 4058.59541 3281.92437 4058.172 3282.15557 4057.7858 3282.44468 4057.44468 3282.7858 4057.15557 3283.172 4056.92437 3283.59541 4056.75578 3284.04741 4056.65324 3284.51881 4056.61882 3285 4056.65324 3285.48119 4056.75578 3285.95259 4056.92437 3286.40459 4057.15557 3286.828 4057.44468 3287.2142 4057.7858 3287.55532 4058.172 3287.84443 4058.59541 3288.07563 4059.04741 3288.24422 4059.51881 3288.34676 4060 3288.38118 Z M 4060 3228.38118 L 4060.48119 3228.34676 4060.95259 3228.24422 4061.40459 3228.07563 4061.828 3227.84443 4062.2142 3227.55532 4062.55532 3227.2142 4062.84443 3226.828 4063.07563 3226.40459 4063.24422 3225.95259 4063.34676 3225.48119 4063.38118 3225 4063.34676 3224.51881 4063.24422 3224.04741 4063.07563 3223.59541 4062.84443 3223.172 4062.55532 3222.7858 4062.2142 3222.44468 4061.828 3222.15557 4061.40459 3221.92437 4060.95259 3221.75578 4060.48119 3221.65324 4060 3221.61882 4059.51881 3221.65324 4059.04741 3221.75578 4058.59541 3221.92437 4058.172 3222.15557 4057.7858 3222.44468 4057.44468 3222.7858 4057.15557 3223.172 4056.92437 3223.59541 4056.75578 3224.04741 4056.65324 3224.51881 4056.61882 3225 4056.65324 3225.48119 4056.75578 3225.95259 4056.92437 3226.40459 4057.15557 3226.828 4057.44468 3227.2142 4057.7858 3227.55532 4058.172 3227.84443 4058.59541 3228.07563 4059.04741 3228.24422 4059.51881 3228.34676 4060 3228.38118 Z M 4060 3298.38118 L 4060.48119 3298.34676 4060.95259 3298.24422 4061.40459 3298.07563 4061.828 3297.84443 4062.2142 3297.55532 4062.55532 3297.2142 4062.84443 3296.828 4063.07563 3296.40459 4063.24422 3295.95259 4063.34676 3295.48119 4063.38118 3295 4063.34676 3294.51881 4063.24422 3294.04741 4063.07563 3293.59541 4062.84443 3293.172 4062.55532 3292.7858 4062.2142 3292.44468 4061.828 3292.15557 4061.40459 3291.92437 4060.95259 3291.75578 4060.48119 3291.65324 4060 3291.61882 4059.51881 3291.65324 4059.04741 3291.75578 4058.59541 3291.92437 4058.172 3292.15557 4057.7858 3292.44468 4057.44468 3292.7858 4057.15557 3293.172 4056.92437 3293.59541 4056.75578 3294.04741 4056.65324 3294.51881 4056.61882 3295 4056.65324 3295.48119 4056.75578 3295.95259 4056.92437 3296.40459 4057.15557 3296.828 4057.44468 3297.2142 4057.7858 3297.55532 4058.172 3297.84443 4058.59541 3298.07563 4059.04741 3298.24422 4059.51881 3298.34676 4060 3298.38118 Z " stroke-width="0" layerid="1" attachedcopperid="gge1471" c_shapetype="line" id="gge1471_3" class=""></path><polyline points="4054 3260 4048.5 3260" stroke-width="3.937"  stroke-linecap="round" fill="none" layerid="1" net="+5V" id="gge2024" locked="0" /><polyline points="4054 3270 4048.5 3270" stroke-width="3.937"  stroke-linecap="round" fill="none" layerid="1" net="U1_6" id="gge2021" locked="0" /><polyline points="4126 3260 4132 3260" stroke-width="3.937"  stroke-linecap="round" fill="none" layerid="1" net="+5V" id="gge1970" locked="0" /><polyline points="4060 3265 4063 3265 4064.5 3263.5 4064.5 3247.5 4062 3245 4060 3245" stroke-width="1"  stroke-linecap="round" fill="none" layerid="1" net="+5V" id="gge1534" locked="1" /><polyline points="4060 3265 4059 3265 4054 3260" stroke-width="1"  stroke-linecap="round" fill="none" layerid="1" net="+5V" id="gge1516" locked="1" /><polyline points="4054 3270 4079 3270 4081.5 3267.5 4081.5 3256.5 4075 3250 4075 3246.5 4078.5 3243 4078.5 3240.5 4086.5 3232.5 4086.5 3225 4087 3225 4088.5 3223.5" stroke-width="1"  stroke-linecap="round" fill="none" layerid="1" net="U1_6" id="gge1021" locked="1" /><polyline points="4083 3229.5 4083 3230 4083 3220 4079.5 3216.5" stroke-width="1"  stroke-linecap="round" fill="none" layerid="1" net="U1_5" id="gge617" locked="1" /><polyline points="4091.5 3258 4091.5 3234 4094 3231.5" stroke-width="1"  stroke-linecap="round" fill="none" layerid="1" net="U1_3" id="gge625" locked="1" /><polyline points="4099 3259.5 4099 3296.5 4103 3300.5" stroke-width="1"  stroke-linecap="round" fill="none" layerid="1" net="U3_1" id="gge629" locked="1" /><polyline points="4071.5 3263.5 4071.5 3245 4075.5 3241" stroke-width="1"  stroke-linecap="round" fill="none" layerid="1" net="U2_3" id="gge635" locked="1" /><polyline points="4091.5 3277.5 4091.5 3261.5 4079 3249" stroke-width="1"  stroke-linecap="round" fill="none" layerid="1" net="U2_5" id="gge640" locked="1" /><polyline points="4126 3250 4132 3250" stroke-width="3.937"  stroke-linecap="round" fill="none" layerid="1" net="GND" id="gge1973" locked="0" /><polyline points="4054 3250 4048.5 3250" stroke-width="3.937"  stroke-linecap="round" fill="none" layerid="1" net="GND" id="gge2027" locked="0" /><polyline points="4126 3270 4132 3270" stroke-width="3.937"  stroke-linecap="round" fill="none" layerid="1" net="U3_5" id="gge1967" locked="0" /><g c_partid="part_pad" c_etype="pinpart" c_origin="4060,3255" layerid="11" number="4" net="LED1_4" plated ="Y"  id="gge38" locked="0" c_rotation="180" c_width="4.7244" c_height="4.7244" title="LED1_4" c_shape="ELLIPSE" pasteexpansion="0" solderexpansion="0.2"><ellipse c_etype="pad_shell" cx="4060" cy="3255" rx="2.3622" ry="2.3622" layerid="11" stroke-width="0"/><circle c_etype="pad_hole" cx="4060" cy="3255" r="1.5748" layerid="11" stroke-width="0"/></g><g c_partid="part_pad" c_etype="pinpart" c_origin="4060,3245" layerid="11" number="3" net="+5V" plated ="Y"  id="gge43" locked="0" c_rotation="180" c_width="4.7244" c_height="4.7244" title="+5V" c_shape="ELLIPSE" pasteexpansion="0" solderexpansion="0.2"><ellipse c_etype="pad_shell" cx="4060" cy="3245" rx="2.3622" ry="2.3622" layerid="11" stroke-width="0"/><circle c_etype="pad_hole" cx="4060" cy="3245" r="1.5748" layerid="11" stroke-width="0"/></g><g c_partid="part_pad" c_etype="pinpart" c_origin="4060,3235" layerid="11" number="2" net="LED1_2" plated ="Y"  id="gge48" locked="0" c_rotation="180" c_width="4.7244" c_height="4.7244" title="LED1_2" c_shape="ELLIPSE" pasteexpansion="0" solderexpansion="0.2"><ellipse c_etype="pad_shell" cx="4060" cy="3235" rx="2.3622" ry="2.3622" layerid="11" stroke-width="0"/><circle c_etype="pad_hole" cx="4060" cy="3235" r="1.5748" layerid="11" stroke-width="0"/></g><g c_partid="part_pad" c_etype="pinpart" c_origin="4060,3265" layerid="11" number="5" net="+5V" plated ="Y"  id="gge53" locked="0" c_rotation="180" c_width="4.7244" c_height="4.7244" title="+5V" c_shape="ELLIPSE" pasteexpansion="0" solderexpansion="0.2"><ellipse c_etype="pad_shell" cx="4060" cy="3265" rx="2.3622" ry="2.3622" layerid="11" stroke-width="0"/><circle c_etype="pad_hole" cx="4060" cy="3265" r="1.5748" layerid="11" stroke-width="0"/></g><g c_partid="part_pad" c_etype="pinpart" c_origin="4060,3225" layerid="11" number="1" net="LED1_1" plated ="Y"  id="gge58" locked="0" c_rotation="180" c_width="4.7244" c_height="4.7244" title="LED1_1" c_shape="ELLIPSE" pasteexpansion="0" solderexpansion="0.2"><ellipse c_etype="pad_shell" cx="4060" cy="3225" rx="2.3622" ry="2.3622" layerid="11" stroke-width="0"/><circle c_etype="pad_hole" cx="4060" cy="3225" r="1.5748" layerid="11" stroke-width="0"/></g><g c_partid="part_pad" c_etype="pinpart" c_origin="4060,3275" layerid="11" number="6" net="LED1_6" plated ="Y"  id="gge63" locked="0" c_rotation="180" c_width="4.7244" c_height="4.7244" title="LED1_6" c_shape="ELLIPSE" pasteexpansion="0" solderexpansion="0.2"><ellipse c_etype="pad_shell" cx="4060" cy="3275" rx="2.3622" ry="2.3622" layerid="11" stroke-width="0"/><circle c_etype="pad_hole" cx="4060" cy="3275" r="1.5748" layerid="11" stroke-width="0"/></g><g c_partid="part_pad" c_etype="pinpart" c_origin="4060,3285" layerid="11" number="7" net="" plated ="Y"  id="gge68" locked="0" c_rotation="180" c_width="4.7244" c_height="4.7244" title="" c_shape="ELLIPSE" pasteexpansion="0" solderexpansion="0.2"><ellipse c_etype="pad_shell" cx="4060" cy="3285" rx="2.3622" ry="2.3622" layerid="11" stroke-width="0"/><circle c_etype="pad_hole" cx="4060" cy="3285" r="1.5748" layerid="11" stroke-width="0"/></g><g c_partid="part_pad" c_etype="pinpart" c_origin="4060,3295" layerid="11" number="8" net="" plated ="Y"  id="gge73" locked="0" c_rotation="180" c_width="4.7244" c_height="4.7244" title="" c_shape="ELLIPSE" pasteexpansion="0" solderexpansion="0.2"><ellipse c_etype="pad_shell" cx="4060" cy="3295" rx="2.3622" ry="2.3622" layerid="11" stroke-width="0"/><circle c_etype="pad_hole" cx="4060" cy="3295" r="1.5748" layerid="11" stroke-width="0"/></g><g c_partid="part_pad" c_etype="pinpart" c_origin="4120,3295" layerid="11" number="9" net="LED1_9" plated ="Y"  id="gge78" locked="0" c_rotation="180" c_width="4.7244" c_height="4.7244" title="LED1_9" c_shape="ELLIPSE" pasteexpansion="0" solderexpansion="0.2"><ellipse c_etype="pad_shell" cx="4120" cy="3295" rx="2.3622" ry="2.3622" layerid="11" stroke-width="0"/><circle c_etype="pad_hole" cx="4120" cy="3295" r="1.5748" layerid="11" stroke-width="0"/></g><g c_partid="part_pad" c_etype="pinpart" c_origin="4120,3245" layerid="11" number="14" net="LED1_14" plated ="Y"  id="gge83" locked="0" c_rotation="180" c_width="4.7244" c_height="4.7244" title="LED1_14" c_shape="ELLIPSE" pasteexpansion="0" solderexpansion="0.2"><ellipse c_etype="pad_shell" cx="4120" cy="3245" rx="2.3622" ry="2.3622" layerid="11" stroke-width="0"/><circle c_etype="pad_hole" cx="4120" cy="3245" r="1.5748" layerid="11" stroke-width="0"/></g><g c_partid="part_pad" c_etype="pinpart" c_origin="4120,3285" layerid="11" number="10" net="LED1_10" plated ="Y"  id="gge88" locked="0" c_rotation="180" c_width="4.7244" c_height="4.7244" title="LED1_10" c_shape="ELLIPSE" pasteexpansion="0" solderexpansion="0.2"><ellipse c_etype="pad_shell" cx="4120" cy="3285" rx="2.3622" ry="2.3622" layerid="11" stroke-width="0"/><circle c_etype="pad_hole" cx="4120" cy="3285" r="1.5748" layerid="11" stroke-width="0"/></g><g c_partid="part_pad" c_etype="pinpart" c_origin="4120,3255" layerid="11" number="13" net="LED1_13" plated ="Y"  id="gge93" locked="0" c_rotation="180" c_width="4.7244" c_height="4.7244" title="LED1_13" c_shape="ELLIPSE" pasteexpansion="0" solderexpansion="0.2"><ellipse c_etype="pad_shell" cx="4120" cy="3255" rx="2.3622" ry="2.3622" layerid="11" stroke-width="0"/><circle c_etype="pad_hole" cx="4120" cy="3255" r="1.5748" layerid="11" stroke-width="0"/></g><g c_partid="part_pad" c_etype="pinpart" c_origin="4120,3265" layerid="11" number="12" net="LED1_12" plated ="Y"  id="gge98" locked="0" c_rotation="180" c_width="4.7244" c_height="4.7244" title="LED1_12" c_shape="ELLIPSE" pasteexpansion="0" solderexpansion="0.2"><ellipse c_etype="pad_shell" cx="4120" cy="3265" rx="2.3622" ry="2.3622" layerid="11" stroke-width="0"/><circle c_etype="pad_hole" cx="4120" cy="3265" r="1.5748" layerid="11" stroke-width="0"/></g><g c_partid="part_pad" c_etype="pinpart" c_origin="4120,3275" layerid="11" number="11" net="+5V" plated ="Y"  id="gge103" locked="0" c_rotation="180" c_width="4.7244" c_height="4.7244" title="+5V" c_shape="ELLIPSE" pasteexpansion="0" solderexpansion="0.2"><ellipse c_etype="pad_shell" cx="4120" cy="3275" rx="2.3622" ry="2.3622" layerid="11" stroke-width="0"/><circle c_etype="pad_hole" cx="4120" cy="3275" r="1.5748" layerid="11" stroke-width="0"/></g><g c_partid="part_pad" c_etype="pinpart" c_origin="4120,3235" layerid="11" number="15" net="" plated ="Y"  id="gge108" locked="0" c_rotation="180" c_width="4.7244" c_height="4.7244" title="" c_shape="ELLIPSE" pasteexpansion="0" solderexpansion="0.2"><ellipse c_etype="pad_shell" cx="4120" cy="3235" rx="2.3622" ry="2.3622" layerid="11" stroke-width="0"/><circle c_etype="pad_hole" cx="4120" cy="3235" r="1.5748" layerid="11" stroke-width="0"/></g><g c_partid="part_pad" c_etype="pinpart" c_origin="4120,3225" layerid="11" number="16" net="+5V" plated ="Y"  id="gge113" locked="0" c_rotation="180" c_width="4.7244" c_height="4.7244" title="+5V" c_shape="ELLIPSE" pasteexpansion="0" solderexpansion="0.2"><ellipse c_etype="pad_shell" cx="4120" cy="3225" rx="2.3622" ry="2.3622" layerid="11" stroke-width="0"/><circle c_etype="pad_hole" cx="4120" cy="3225" r="1.5748" layerid="11" stroke-width="0"/></g><g c_partid="part_pad" c_etype="pinpart" c_origin="4054,3250" layerid="11" number="3" net="GND" plated ="Y"  id="gge958" locked="0" c_rotation="90" c_width="6.2" c_height="6.2" title="GND" c_shape="RECT" pasteexpansion="0" solderexpansion="0.2"><polygon  c_etype="pad_shell" points="4050.9 3253.1 4050.9 3246.9 4057.1 3246.9 4057.1 3253.1" layerid="11" stroke-width="0" /><circle c_etype="pad_hole" cx="4054" cy="3250" r="1.75" layerid="11" stroke-width="0"/></g><g c_partid="part_pad" c_etype="pinpart" c_origin="4054,3260" layerid="11" number="2" net="+5V" plated ="Y"  id="gge963" locked="0" c_rotation="90" c_width="6.2" c_height="6.2" title="+5V" c_shape="ELLIPSE" pasteexpansion="0" solderexpansion="0.2"><ellipse c_etype="pad_shell" cx="4054" cy="3260" rx="3.1" ry="3.1" layerid="11" stroke-width="0"/><circle c_etype="pad_hole" cx="4054" cy="3260" r="1.75" layerid="11" stroke-width="0"/></g><g c_partid="part_pad" c_etype="pinpart" c_origin="4054,3270" layerid="11" number="1" net="U1_6" plated ="Y"  id="gge968" locked="0" c_rotation="90" c_width="6.2" c_height="6.2" title="U1_6" c_shape="ELLIPSE" pasteexpansion="0" solderexpansion="0.2"><ellipse c_etype="pad_shell" cx="4054" cy="3270" rx="3.1" ry="3.1" layerid="11" stroke-width="0"/><circle c_etype="pad_hole" cx="4054" cy="3270" r="1.75" layerid="11" stroke-width="0"/></g><g c_partid="part_pad" c_etype="pinpart" c_origin="4126,3250" layerid="11" number="3" net="GND" plated ="Y"  id="gge988" locked="0" c_rotation="270" c_width="6.2" c_height="6.2" title="GND" c_shape="RECT" pasteexpansion="0" solderexpansion="0.2"><polygon  c_etype="pad_shell" points="4129.1 3246.9 4129.1 3253.1 4122.9 3253.1 4122.9 3246.9" layerid="11" stroke-width="0" /><circle c_etype="pad_hole" cx="4126" cy="3250" r="1.75" layerid="11" stroke-width="0"/></g><g c_partid="part_pad" c_etype="pinpart" c_origin="4126,3260" layerid="11" number="2" net="+5V" plated ="Y"  id="gge993" locked="0" c_rotation="270" c_width="6.2" c_height="6.2" title="+5V" c_shape="ELLIPSE" pasteexpansion="0" solderexpansion="0.2"><ellipse c_etype="pad_shell" cx="4126" cy="3260" rx="3.1" ry="3.1" layerid="11" stroke-width="0"/><circle c_etype="pad_hole" cx="4126" cy="3260" r="1.75" layerid="11" stroke-width="0"/></g><g c_partid="part_pad" c_etype="pinpart" c_origin="4126,3270" layerid="11" number="1" net="U3_5" plated ="Y"  id="gge998" locked="0" c_rotation="270" c_width="6.2" c_height="6.2" title="U3_5" c_shape="ELLIPSE" pasteexpansion="0" solderexpansion="0.2"><ellipse c_etype="pad_shell" cx="4126" cy="3270" rx="3.1" ry="3.1" layerid="11" stroke-width="0"/><circle c_etype="pad_hole" cx="4126" cy="3270" r="1.75" layerid="11" stroke-width="0"/></g><g c_partid="part_via" c_etype="pinpart" c_shapetype="group" net="U1_5" c_origin="4083,3229.5" layerid="11" id="gge618" locked="1" solderexpansion=""><circle cx="4083" cy="3229.5" r="1.2" stroke-width="0" c_etype="pad_shell"/><circle cx="4083" cy="3229.5" r="0.6"  stroke-width="0" c_etype="pad_hole"/></g><g c_partid="part_via" c_etype="pinpart" c_shapetype="group" net="U1_5" c_origin="4079.5,3216.5" layerid="11" id="gge619" locked="1" solderexpansion=""><circle cx="4079.5" cy="3216.5" r="1.2" stroke-width="0" c_etype="pad_shell"/><circle cx="4079.5" cy="3216.5" r="0.6"  stroke-width="0" c_etype="pad_hole"/></g><g c_partid="part_via" c_etype="pinpart" c_shapetype="group" net="U1_3" c_origin="4091.5,3258" layerid="11" id="gge624" locked="1" solderexpansion=""><circle cx="4091.5" cy="3258" r="1.2" stroke-width="0" c_etype="pad_shell"/><circle cx="4091.5" cy="3258" r="0.6"  stroke-width="0" c_etype="pad_hole"/></g><g c_partid="part_via" c_etype="pinpart" c_shapetype="group" net="U1_3" c_origin="4094,3231.5" layerid="11" id="gge626" locked="1" solderexpansion=""><circle cx="4094" cy="3231.5" r="1.2" stroke-width="0" c_etype="pad_shell"/><circle cx="4094" cy="3231.5" r="0.6"  stroke-width="0" c_etype="pad_hole"/></g><g c_partid="part_via" c_etype="pinpart" c_shapetype="group" net="U3_1" c_origin="4099,3259.5" layerid="11" id="gge630" locked="1" solderexpansion=""><circle cx="4099" cy="3259.5" r="1.2" stroke-width="0" c_etype="pad_shell"/><circle cx="4099" cy="3259.5" r="0.6"  stroke-width="0" c_etype="pad_hole"/></g><g c_partid="part_via" c_etype="pinpart" c_shapetype="group" net="U3_1" c_origin="4103,3300.5" layerid="11" id="gge631" locked="1" solderexpansion=""><circle cx="4103" cy="3300.5" r="1.2" stroke-width="0" c_etype="pad_shell"/><circle cx="4103" cy="3300.5" r="0.6"  stroke-width="0" c_etype="pad_hole"/></g><g c_partid="part_via" c_etype="pinpart" c_shapetype="group" net="U2_3" c_origin="4071.5,3263.5" layerid="11" id="gge634" locked="1" solderexpansion=""><circle cx="4071.5" cy="3263.5" r="1.2" stroke-width="0" c_etype="pad_shell"/><circle cx="4071.5" cy="3263.5" r="0.6"  stroke-width="0" c_etype="pad_hole"/></g><g c_partid="part_via" c_etype="pinpart" c_shapetype="group" net="U2_3" c_origin="4075.5,3241" layerid="11" id="gge636" locked="1" solderexpansion=""><circle cx="4075.5" cy="3241" r="1.2" stroke-width="0" c_etype="pad_shell"/><circle cx="4075.5" cy="3241" r="0.6"  stroke-width="0" c_etype="pad_hole"/></g><g c_partid="part_via" c_etype="pinpart" c_shapetype="group" net="U2_5" c_origin="4091.5,3277.5" layerid="11" id="gge639" locked="1" solderexpansion=""><circle cx="4091.5" cy="3277.5" r="1.2" stroke-width="0" c_etype="pad_shell"/><circle cx="4091.5" cy="3277.5" r="0.6"  stroke-width="0" c_etype="pad_hole"/></g><g c_partid="part_via" c_etype="pinpart" c_shapetype="group" net="U2_5" c_origin="4079,3249" layerid="11" id="gge641" locked="1" solderexpansion=""><circle cx="4079" cy="3249" r="1.2" stroke-width="0" c_etype="pad_shell"/><circle cx="4079" cy="3249" r="0.6"  stroke-width="0" c_etype="pad_hole"/></g><g c_partid="part_via" c_etype="pinpart" c_shapetype="group" net="U1_6" c_origin="4088.5,3223.5" layerid="11" id="gge1022" locked="1" solderexpansion=""><circle cx="4088.5" cy="3223.5" r="1.2" stroke-width="0" c_etype="pad_shell"/><circle cx="4088.5" cy="3223.5" r="0.6"  stroke-width="0" c_etype="pad_hole"/></g><g c_partid="part_via" c_etype="pinpart" c_shapetype="group" net="U3_5" c_origin="4102,3291.5" layerid="11" id="gge1025" locked="1" solderexpansion=""><circle cx="4102" cy="3291.5" r="1.2" stroke-width="0" c_etype="pad_shell"/><circle cx="4102" cy="3291.5" r="0.6"  stroke-width="0" c_etype="pad_hole"/></g><g c_partid="part_via" c_etype="pinpart" c_shapetype="group" net="GND" c_origin="4089,3244" layerid="11" id="gge1467" locked="1" solderexpansion=""><circle cx="4089" cy="3244" r="1.2" stroke-width="0" c_etype="pad_shell"/><circle cx="4089" cy="3244" r="0.6"  stroke-width="0" c_etype="pad_hole"/></g><g c_partid="part_via" c_etype="pinpart" c_shapetype="group" net="GND" c_origin="4086.5,3265.5" layerid="11" id="gge1715" locked="1" solderexpansion=""><circle cx="4086.5" cy="3265.5" r="1.2" stroke-width="0" c_etype="pad_shell"/><circle cx="4086.5" cy="3265.5" r="0.6"  stroke-width="0" c_etype="pad_hole"/></g><g c_partid="part_via" c_etype="pinpart" c_shapetype="group" net="GND" c_origin="4083.5,3298.5" layerid="11" id="gge1739" locked="1" solderexpansion=""><circle cx="4083.5" cy="3298.5" r="1.2" stroke-width="0" c_etype="pad_shell"/><circle cx="4083.5" cy="3298.5" r="0.6"  stroke-width="0" c_etype="pad_hole"/></g><polyline points="4130 3310 4130 3210" stroke-width="2.003933"  stroke-linecap="round" fill="none" layerid="3" net="" id="gge7" locked="0" /><polyline points="4102.0586 3229.9671 4087.692 3229.9671" stroke-width="5.3937"  stroke-linecap="round" fill="none" layerid="3" net="" id="gge8" locked="0" /><polyline points="4099.4396 3275.9561 4102.1386 3260.6605" stroke-width="5.3937"  stroke-linecap="round" fill="none" layerid="3" net="" id="gge9" locked="0" /><polyline points="4078.757 3280.5727 4093.1286 3280.5609" stroke-width="5.3937"  stroke-linecap="round" fill="none" layerid="3" net="" id="gge10" locked="0" /><polyline points="4097.6 3255.2625 4083.2338 3255.2625" stroke-width="5.3937"  stroke-linecap="round" fill="none" layerid="3" net="" id="gge11" locked="0" /><polyline points="4103.896 3250.6585 4106.5874 3235.3499" stroke-width="5.3937"  stroke-linecap="round" fill="none" layerid="3" net="" id="gge12" locked="0" /><polyline points="4078.694 3249.8753 4081.3756 3234.5719" stroke-width="5.3937"  stroke-linecap="round" fill="none" layerid="3" net="" id="gge13" locked="0" /><polyline points="4074.2314 3275.1581 4076.9184 3259.8695" stroke-width="5.3937"  stroke-linecap="round" fill="none" layerid="3" net="" id="gge14" locked="0" /><polyline points="4130 3210 4050 3210 4050 3310 4129.37 3310 4130 3310" stroke-width="1.9685"  stroke-linecap="round" fill="none" layerid="3" net="" id="gge15" locked="0" /><polyline points="4049 3267.5 4049 3275 4059 3275 4059 3245 4049 3245" stroke-width="0.8"  stroke-linecap="round" fill="none" layerid="3" net="" id="gge949" locked="0" /><polyline points="4049 3245 4049 3267.5" stroke-width="0.79921"  stroke-linecap="round" fill="none" layerid="3" net="" id="gge950" locked="0" /><g c_partid="part_pcbtext" c_etype="pinpart" c_origin="4112.5,3254.5" c_rotation="0" c_mirror="0" id="gge2298" locked="0" layerid="3" c_shapetype="group" ><path c_fontsize="3.937" c_fontfamily="" c_text="G\n5V\nDo" d="M 4115.18 3251.42 L 4115.01 3251.06 L 4114.65 3250.71 L 4114.29 3250.53 L 4113.57 3250.53 L 4113.22 3250.71 L 4112.86 3251.06 L 4112.68 3251.42 L 4112.5 3251.96 L 4112.5 3252.85 L 4112.68 3253.39 L 4112.86 3253.75 L 4113.22 3254.11 L 4113.57 3254.29 L 4114.29 3254.29 L 4114.65 3254.11 L 4115.01 3253.75 L 4115.18 3253.39 L 4115.18 3252.85 M 4114.29 3252.85 L 4115.18 3252.85 M 4114.65 3258.46 L 4112.86 3258.46 L 4112.68 3260.07 L 4112.86 3259.9 L 4113.39 3259.72 L 4113.93 3259.72 L 4114.47 3259.9 L 4114.83 3260.25 L 4115.01 3260.79 L 4115.01 3261.15 L 4114.83 3261.69 L 4114.47 3262.04 L 4113.93 3262.22 L 4113.39 3262.22 L 4112.86 3262.04 L 4112.68 3261.86 L 4112.5 3261.51 M 4116.19 3258.46 L 4117.62 3262.22 M 4119.05 3258.46 L 4117.62 3262.22 M 4112.5 3266.4 L 4112.5 3270.16 M 4112.5 3266.4 L 4113.75 3266.4 L 4114.29 3266.58 L 4114.65 3266.94 L 4114.83 3267.3 L 4115.01 3267.83 L 4115.01 3268.73 L 4114.83 3269.26 L 4114.65 3269.62 L 4114.29 3269.98 L 4113.75 3270.16 L 4112.5 3270.16 M 4117.08 3267.65 L 4116.72 3267.83 L 4116.37 3268.19 L 4116.19 3268.73 L 4116.19 3269.09 L 4116.37 3269.62 L 4116.72 3269.98 L 4117.08 3270.16 L 4117.62 3270.16 L 4117.98 3269.98 L 4118.33 3269.62 L 4118.51 3269.09 L 4118.51 3268.73 L 4118.33 3268.19 L 4117.98 3267.83 L 4117.62 3267.65 L 4117.08 3267.65" fill="none"  stroke-width="0.5906"  /></g><g c_partid="part_pcbtext" c_etype="pinpart" c_origin="4062.5,3254.5" c_rotation="0" c_mirror="0" id="gge2319" locked="0" layerid="3" c_shapetype="group" ><path c_fontsize="3.937" c_fontfamily="" c_text="G\n5V\nDi" d="M 4065.18 3251.42 L 4065.01 3251.06 L 4064.65 3250.71 L 4064.29 3250.53 L 4063.57 3250.53 L 4063.22 3250.71 L 4062.86 3251.06 L 4062.68 3251.42 L 4062.5 3251.96 L 4062.5 3252.85 L 4062.68 3253.39 L 4062.86 3253.75 L 4063.22 3254.11 L 4063.57 3254.29 L 4064.29 3254.29 L 4064.65 3254.11 L 4065.01 3253.75 L 4065.18 3253.39 L 4065.18 3252.85 M 4064.29 3252.85 L 4065.18 3252.85 M 4064.65 3258.46 L 4062.86 3258.46 L 4062.68 3260.07 L 4062.86 3259.9 L 4063.39 3259.72 L 4063.93 3259.72 L 4064.47 3259.9 L 4064.83 3260.25 L 4065.01 3260.79 L 4065.01 3261.15 L 4064.83 3261.69 L 4064.47 3262.04 L 4063.93 3262.22 L 4063.39 3262.22 L 4062.86 3262.04 L 4062.68 3261.86 L 4062.5 3261.51 M 4066.19 3258.46 L 4067.62 3262.22 M 4069.05 3258.46 L 4067.62 3262.22 M 4062.5 3266.4 L 4062.5 3270.16 M 4062.5 3266.4 L 4063.75 3266.4 L 4064.29 3266.58 L 4064.65 3266.94 L 4064.83 3267.3 L 4065.01 3267.83 L 4065.01 3268.73 L 4064.83 3269.26 L 4064.65 3269.62 L 4064.29 3269.98 L 4063.75 3270.16 L 4062.5 3270.16 M 4066.19 3266.4 L 4066.37 3266.58 L 4066.54 3266.4 L 4066.37 3266.22 L 4066.19 3266.4 M 4066.37 3267.65 L 4066.37 3270.16" fill="none"  stroke-width="0.5906"  /></g><g c_partid="part_pcbtext" c_etype="pinpart" c_origin="4086,3217" c_rotation="0" c_mirror="0" id="gge2367" locked="0" layerid="3" c_shapetype="group" ><path c_fontsize="3.937" c_fontfamily="" c_text="Made by Marek" d="M 4086 3213.03 L 4086 3216.79 M 4086 3213.03 L 4087.43 3216.79 M 4088.86 3213.03 L 4087.43 3216.79 M 4088.86 3213.03 L 4088.86 3216.79 M 4092.19 3214.28 L 4092.19 3216.79 M 4092.19 3214.82 L 4091.83 3214.46 L 4091.48 3214.28 L 4090.94 3214.28 L 4090.58 3214.46 L 4090.22 3214.82 L 4090.04 3215.35 L 4090.04 3215.71 L 4090.22 3216.25 L 4090.58 3216.61 L 4090.94 3216.79 L 4091.48 3216.79 L 4091.83 3216.61 L 4092.19 3216.25 M 4095.52 3213.03 L 4095.52 3216.79 M 4095.52 3214.82 L 4095.16 3214.46 L 4094.8 3214.28 L 4094.27 3214.28 L 4093.91 3214.46 L 4093.55 3214.82 L 4093.37 3215.35 L 4093.37 3215.71 L 4093.55 3216.25 L 4093.91 3216.61 L 4094.27 3216.79 L 4094.8 3216.79 L 4095.16 3216.61 L 4095.52 3216.25 M 4096.7 3215.35 L 4098.85 3215.35 L 4098.85 3215 L 4098.67 3214.64 L 4098.49 3214.46 L 4098.13 3214.28 L 4097.6 3214.28 L 4097.24 3214.46 L 4096.88 3214.82 L 4096.7 3215.35 L 4096.7 3215.71 L 4096.88 3216.25 L 4097.24 3216.61 L 4097.6 3216.79 L 4098.13 3216.79 L 4098.49 3216.61 L 4098.85 3216.25 M 4102.79 3213.03 L 4102.79 3216.79 M 4102.79 3214.82 L 4103.14 3214.46 L 4103.5 3214.28 L 4104.04 3214.28 L 4104.4 3214.46 L 4104.75 3214.82 L 4104.93 3215.35 L 4104.93 3215.71 L 4104.75 3216.25 L 4104.4 3216.61 L 4104.04 3216.79 L 4103.5 3216.79 L 4103.14 3216.61 L 4102.79 3216.25 M 4106.29 3214.28 L 4107.37 3216.79 M 4108.44 3214.28 L 4107.37 3216.79 L 4107.01 3217.5 L 4106.65 3217.86 L 4106.29 3218.04 L 4106.11 3218.04 M 4112.38 3213.03 L 4112.38 3216.79 M 4112.38 3213.03 L 4113.81 3216.79 M 4115.24 3213.03 L 4113.81 3216.79 M 4115.24 3213.03 L 4115.24 3216.79 M 4118.57 3214.28 L 4118.57 3216.79 M 4118.57 3214.82 L 4118.21 3214.46 L 4117.85 3214.28 L 4117.32 3214.28 L 4116.96 3214.46 L 4116.6 3214.82 L 4116.42 3215.35 L 4116.42 3215.71 L 4116.6 3216.25 L 4116.96 3216.61 L 4117.32 3216.79 L 4117.85 3216.79 L 4118.21 3216.61 L 4118.57 3216.25 M 4119.75 3214.28 L 4119.75 3216.79 M 4119.75 3215.35 L 4119.93 3214.82 L 4120.29 3214.46 L 4120.65 3214.28 L 4121.18 3214.28 M 4122.36 3215.35 L 4124.51 3215.35 L 4124.51 3215 L 4124.33 3214.64 L 4124.15 3214.46 L 4123.8 3214.28 L 4123.26 3214.28 L 4122.9 3214.46 L 4122.54 3214.82 L 4122.36 3215.35 L 4122.36 3215.71 L 4122.54 3216.25 L 4122.9 3216.61 L 4123.26 3216.79 L 4123.8 3216.79 L 4124.15 3216.61 L 4124.51 3216.25 M 4125.69 3213.03 L 4125.69 3216.79 M 4127.48 3214.28 L 4125.69 3216.07 M 4126.41 3215.35 L 4127.66 3216.79" fill="none"  stroke-width="0.5906"  /></g><g c_partid="part_pcbtext" c_etype="pinpart" c_origin="4108.5,3307" c_rotation="0" c_mirror="0" id="gge2415" locked="0" layerid="3" c_shapetype="group" ><path c_fontsize="3.937" c_fontfamily="" c_text="04/22" d="M 4109.57 3303.03 L 4109.04 3303.21 L 4108.68 3303.74 L 4108.5 3304.64 L 4108.5 3305.17 L 4108.68 3306.07 L 4109.04 3306.61 L 4109.57 3306.79 L 4109.93 3306.79 L 4110.47 3306.61 L 4110.83 3306.07 L 4111.01 3305.17 L 4111.01 3304.64 L 4110.83 3303.74 L 4110.47 3303.21 L 4109.93 3303.03 L 4109.57 3303.03 M 4113.98 3303.03 L 4112.19 3305.53 L 4114.87 3305.53 M 4113.98 3303.03 L 4113.98 3306.79 M 4119.27 3302.31 L 4116.05 3308.04 M 4120.63 3303.92 L 4120.63 3303.74 L 4120.81 3303.39 L 4120.99 3303.21 L 4121.35 3303.03 L 4122.06 3303.03 L 4122.42 3303.21 L 4122.6 3303.39 L 4122.78 3303.74 L 4122.78 3304.1 L 4122.6 3304.46 L 4122.24 3305 L 4120.45 3306.79 L 4122.96 3306.79 M 4124.32 3303.92 L 4124.32 3303.74 L 4124.5 3303.39 L 4124.68 3303.21 L 4125.04 3303.03 L 4125.75 3303.03 L 4126.11 3303.21 L 4126.29 3303.39 L 4126.47 3303.74 L 4126.47 3304.1 L 4126.29 3304.46 L 4125.93 3305 L 4124.14 3306.79 L 4126.65 3306.79" fill="none"  stroke-width="0.5906"  /></g><g c_partid="part_pcbtext" c_etype="pinpart" c_origin="4054,3307" c_rotation="0" c_mirror="0" id="gge2463" locked="0" layerid="3" c_shapetype="group" ><path c_fontsize="3.937" c_fontfamily="" c_text="V1.1" d="M 4054 3303.03 L 4055.43 3306.79 M 4056.86 3303.03 L 4055.43 3306.79 M 4058.04 3303.74 L 4058.4 3303.56 L 4058.94 3303.03 L 4058.94 3306.79 M 4060.3 3305.89 L 4060.12 3306.07 L 4060.3 3306.25 L 4060.48 3306.07 L 4060.3 3305.89 M 4061.66 3303.74 L 4062.02 3303.56 L 4062.55 3303.03 L 4062.55 3306.79" fill="none"  stroke-width="0.5906"  /></g><g c_partid="part_pcbtext" c_etype="" c_origin="4089.5,3201.5" c_rotation="0" c_mirror="0" id="gge3" locked="0" layerid="3" c_shapetype="group" display="none"><path c_fontsize="4.5" c_fontfamily="" c_text="FJ8102BH" d="M 4089.5 3196.96 L 4089.5 3201.25 M 4089.5 3196.96 L 4092.16 3196.96 M 4089.5 3199 L 4091.14 3199 M 4095.55 3196.96 L 4095.55 3200.23 L 4095.35 3200.85 L 4095.15 3201.05 L 4094.74 3201.25 L 4094.33 3201.25 L 4093.92 3201.05 L 4093.71 3200.85 L 4093.51 3200.23 L 4093.51 3199.82 M 4097.93 3196.96 L 4097.31 3197.16 L 4097.11 3197.57 L 4097.11 3197.98 L 4097.31 3198.39 L 4097.72 3198.6 L 4098.54 3198.8 L 4099.15 3199 L 4099.56 3199.41 L 4099.77 3199.82 L 4099.77 3200.44 L 4099.56 3200.85 L 4099.36 3201.05 L 4098.75 3201.25 L 4097.93 3201.25 L 4097.31 3201.05 L 4097.11 3200.85 L 4096.9 3200.44 L 4096.9 3199.82 L 4097.11 3199.41 L 4097.52 3199 L 4098.13 3198.8 L 4098.95 3198.6 L 4099.36 3198.39 L 4099.56 3197.98 L 4099.56 3197.57 L 4099.36 3197.16 L 4098.75 3196.96 L 4097.93 3196.96 M 4101.12 3197.78 L 4101.53 3197.57 L 4102.14 3196.96 L 4102.14 3201.25 M 4104.72 3196.96 L 4104.1 3197.16 L 4103.7 3197.78 L 4103.49 3198.8 L 4103.49 3199.41 L 4103.7 3200.44 L 4104.1 3201.05 L 4104.72 3201.25 L 4105.13 3201.25 L 4105.74 3201.05 L 4106.15 3200.44 L 4106.35 3199.41 L 4106.35 3198.8 L 4106.15 3197.78 L 4105.74 3197.16 L 4105.13 3196.96 L 4104.72 3196.96 M 4107.91 3197.98 L 4107.91 3197.78 L 4108.11 3197.37 L 4108.32 3197.16 L 4108.73 3196.96 L 4109.55 3196.96 L 4109.95 3197.16 L 4110.16 3197.37 L 4110.36 3197.78 L 4110.36 3198.19 L 4110.16 3198.6 L 4109.75 3199.21 L 4107.7 3201.25 L 4110.57 3201.25 M 4111.92 3196.96 L 4111.92 3201.25 M 4111.92 3196.96 L 4113.76 3196.96 L 4114.37 3197.16 L 4114.58 3197.37 L 4114.78 3197.78 L 4114.78 3198.19 L 4114.58 3198.6 L 4114.37 3198.8 L 4113.76 3199 M 4111.92 3199 L 4113.76 3199 L 4114.37 3199.21 L 4114.58 3199.41 L 4114.78 3199.82 L 4114.78 3200.44 L 4114.58 3200.85 L 4114.37 3201.05 L 4113.76 3201.25 L 4111.92 3201.25 M 4116.13 3196.96 L 4116.13 3201.25 M 4119 3196.96 L 4119 3201.25 M 4116.13 3199 L 4119 3199" fill="none"  stroke-width="0.6" c_note="note_name" /></g><g c_partid="part_pcbtext" c_etype="" c_origin="4086.5,3222.46" c_rotation="0" c_mirror="0" id="gge5" locked="0" layerid="3" c_shapetype="group" display="none"><path c_fontsize="4.5" c_fontfamily="" c_text="LED1" d="M 4086.5 3217.92 L 4086.5 3222.21 M 4086.5 3222.21 L 4088.95 3222.21 M 4090.3 3217.92 L 4090.3 3222.21 M 4090.3 3217.92 L 4092.96 3217.92 M 4090.3 3219.96 L 4091.94 3219.96 M 4090.3 3222.21 L 4092.96 3222.21 M 4094.31 3217.92 L 4094.31 3222.21 M 4094.31 3217.92 L 4095.75 3217.92 L 4096.36 3218.12 L 4096.77 3218.53 L 4096.97 3218.94 L 4097.18 3219.56 L 4097.18 3220.58 L 4096.97 3221.19 L 4096.77 3221.6 L 4096.36 3222.01 L 4095.75 3222.21 L 4094.31 3222.21 M 4098.53 3218.74 L 4098.94 3218.53 L 4099.55 3217.92 L 4099.55 3222.21" fill="none"  stroke-width="0.6" c_note="note_pre" /></g><g c_partid="part_pcbtext" c_etype="" c_origin="4041,3261" c_rotation="90" c_mirror="0" id="gge945" locked="0" layerid="3" c_shapetype="group" display="none"><path c_fontsize="4.5" c_fontfamily="" c_text="HDR-M-2.54_1x3" d="M 4036.46 3261 L 4040.75 3261 M 4036.46 3258.14 L 4040.75 3258.14 M 4038.5 3261 L 4038.5 3258.14 M 4036.46 3256.79 L 4040.75 3256.79 M 4036.46 3256.79 L 4036.46 3255.35 L 4036.66 3254.74 L 4037.07 3254.33 L 4037.48 3254.13 L 4038.1 3253.92 L 4039.12 3253.92 L 4039.73 3254.13 L 4040.14 3254.33 L 4040.55 3254.74 L 4040.75 3255.35 L 4040.75 3256.79 M 4036.46 3252.57 L 4040.75 3252.57 M 4036.46 3252.57 L 4036.46 3250.73 L 4036.66 3250.12 L 4036.87 3249.91 L 4037.28 3249.71 L 4037.69 3249.71 L 4038.1 3249.91 L 4038.3 3250.12 L 4038.5 3250.73 L 4038.5 3252.57 M 4038.5 3251.14 L 4040.75 3249.71 M 4038.91 3248.36 L 4038.91 3244.68 M 4036.46 3243.33 L 4040.75 3243.33 M 4036.46 3243.33 L 4040.75 3241.69 M 4036.46 3240.05 L 4040.75 3241.69 M 4036.46 3240.05 L 4040.75 3240.05 M 4038.91 3238.7 L 4038.91 3235.02 M 4037.48 3233.47 L 4037.28 3233.47 L 4036.87 3233.26 L 4036.66 3233.06 L 4036.46 3232.65 L 4036.46 3231.83 L 4036.66 3231.42 L 4036.87 3231.22 L 4037.28 3231.01 L 4037.69 3231.01 L 4038.1 3231.22 L 4038.71 3231.63 L 4040.75 3233.67 L 4040.75 3230.81 M 4039.73 3229.25 L 4039.94 3229.46 L 4040.14 3229.25 L 4039.94 3229.05 L 4039.73 3229.25 M 4036.46 3225.25 L 4036.46 3227.29 L 4038.3 3227.5 L 4038.1 3227.29 L 4037.89 3226.68 L 4037.89 3226.06 L 4038.1 3225.45 L 4038.5 3225.04 L 4039.12 3224.84 L 4039.53 3224.84 L 4040.14 3225.04 L 4040.55 3225.45 L 4040.75 3226.06 L 4040.75 3226.68 L 4040.55 3227.29 L 4040.35 3227.5 L 4039.94 3227.7 M 4036.46 3221.44 L 4039.32 3223.49 L 4039.32 3220.42 M 4036.46 3221.44 L 4040.75 3221.44 M 4042.19 3219.07 L 4042.19 3215.39 M 4037.28 3214.04 L 4037.07 3213.63 L 4036.46 3213.01 L 4040.75 3213.01 M 4037.89 3211.66 L 4040.75 3209.41 M 4037.89 3209.41 L 4040.75 3211.66 M 4036.46 3207.65 L 4036.46 3205.4 L 4038.1 3206.63 L 4038.1 3206.02 L 4038.3 3205.61 L 4038.5 3205.4 L 4039.12 3205.2 L 4039.53 3205.2 L 4040.14 3205.4 L 4040.55 3205.81 L 4040.75 3206.43 L 4040.75 3207.04 L 4040.55 3207.65 L 4040.35 3207.86 L 4039.94 3208.06" fill="none"  stroke-width="0.6" c_note="note_name" /></g><g c_partid="part_pcbtext" c_etype="" c_origin="4048,3261" c_rotation="90" c_mirror="0" id="gge947" locked="0" layerid="3" c_shapetype="group" display="none"><path c_fontsize="4.5" c_fontfamily="" c_text="H1" d="M 4043.46 3261 L 4047.75 3261 M 4043.46 3258.14 L 4047.75 3258.14 M 4045.5 3261 L 4045.5 3258.14 M 4044.28 3256.79 L 4044.07 3256.38 L 4043.46 3255.76 L 4047.75 3255.76" fill="none"  stroke-width="0.6" c_note="note_pre" /></g><path d="M 4109.47 3278.96 A 1.1653 1.1653 0 1 0 4109.49 3278.96" locked="0"  fill="none" stroke-width="3.937" c_helper_type="arc2" net="" layerid="3" id="gge16" /><path d="M 4067.27 3279.16 A 1.1653 1.1653 0 1 0 4067.29 3279.16" locked="0"  fill="none" stroke-width="3.937" c_helper_type="arc2" net="" layerid="3" id="gge17" /><polyline points="4049 3209 4131.5 3209 4131.5 3310.5 4048.5 3310.5 4048.5 3211.5 4048.5 3209 4049 3209" stroke-width="1"  stroke-linecap="round" fill="none" layerid="10" net="S$1580" id="gge1579" locked="1" /><path d="M4131.5,3203.7246L4048.5,3203.7246M4125.5,3202.2246L4131.5,3203.7246L4125.5,3205.2246M4054.5,3202.2246L4048.5,3203.7246L4054.5,3205.2246M 4055.64 3189.41L4055.64 3188.95 L4056.09 3188.04 L4056.55 3187.59 L4057.45 3187.13 L4059.27 3187.13 L4060.18 3187.59 L4060.64 3188.04 L4061.09 3188.95 L4061.09 3189.86 L4060.64 3190.77 L4059.73 3192.13 L4055.18 3196.68 L4061.55 3196.68 M 4064.55 3188.95L4065.45 3188.5 L4066.82 3187.13 L4066.82 3196.68 M 4070.27 3194.41L4069.82 3194.86 L4070.27 3195.32 L4070.73 3194.86 L4070.27 3194.41 M 4076.45 3187.13L4075.09 3187.59 L4074.18 3188.95 L4073.73 3191.22 L4073.73 3192.59 L4074.18 3194.86 L4075.09 3196.22 L4076.45 3196.68 L4077.36 3196.68 L4078.73 3196.22 L4079.64 3194.86 L4080.09 3192.59 L4080.09 3191.22 L4079.64 3188.95 L4078.73 3187.59 L4077.36 3187.13 L4076.45 3187.13 M 4085.36 3187.13L4084 3187.59 L4083.55 3188.5 L4083.55 3189.41 L4084 3190.32 L4084.91 3190.77 L4086.73 3191.22 L4088.09 3191.68 L4089 3192.59 L4089.45 3193.5 L4089.45 3194.86 L4089 3195.77 L4088.55 3196.22 L4087.18 3196.68 L4085.36 3196.68 L4084 3196.22 L4083.55 3195.77 L4083.09 3194.86 L4083.09 3193.5 L4083.55 3192.59 L4084.45 3191.68 L4085.82 3191.22 L4087.64 3190.77 L4088.55 3190.32 L4089 3189.41 L4089 3188.5 L4088.55 3187.59 L4087.18 3187.13 L4085.36 3187.13 M 4092.91 3189.41L4092.91 3188.95 L4093.36 3188.04 L4093.82 3187.59 L4094.73 3187.13 L4096.55 3187.13 L4097.45 3187.59 L4097.91 3188.04 L4098.36 3188.95 L4098.36 3189.86 L4097.91 3190.77 L4097 3192.13 L4092.45 3196.68 L4098.82 3196.68 M 4101.82 3190.32L4101.82 3196.68 M 4101.82 3192.13L4103.18 3190.77 L4104.09 3190.32 L4105.45 3190.32 L4106.36 3190.77 L4106.82 3192.13 L4106.82 3196.68 M 4106.82 3192.13L4108.18 3190.77 L4109.09 3190.32 L4110.45 3190.32 L4111.36 3190.77 L4111.82 3192.13 L4111.82 3196.68 M 4114.82 3190.32L4114.82 3196.68 M 4114.82 3192.13L4116.18 3190.77 L4117.09 3190.32 L4118.45 3190.32 L4119.36 3190.77 L4119.82 3192.13 L4119.82 3196.68 M 4119.82 3192.13L4121.18 3190.77 L4122.09 3190.32 L4123.45 3190.32 L4124.36 3190.77 L4124.82 3192.13 L4124.82 3196.68 M 4131.5 3209 4131.5 3193.7246 M 4048.5 3209 4048.5 3193.7246" stroke-width="0.4" fill="none" c_shapetype="group" layerid="12" c_fontsize="" id="gge2491" locked="0" measuring_type="straight"/><path d="M4154.1817,3209L4154.1817,3222.9318M4154.1817,3296.5682L4154.1817,3310.5M4152.6817,3215L4154.1817,3209L4155.6817,3215M4152.6817,3304.5L4154.1817,3310.5L4155.6817,3304.5M 4146.3635 3294.1099L4145.9135 3294.1099 L4145.0035 3293.6599 L4144.5435 3293.1999 L4144.0935 3292.2999 L4144.0935 3290.4799 L4144.5435 3289.5699 L4145.0035 3289.1099 L4145.9135 3288.6599 L4146.8135 3288.6599 L4147.7235 3289.1099 L4149.0935 3290.0199 L4153.6335 3294.5699 L4153.6335 3288.1999 M 4144.0935 3279.7499L4144.0935 3284.2999 L4148.1835 3284.7499 L4147.7235 3284.2999 L4147.2735 3282.9299 L4147.2735 3281.5699 L4147.7235 3280.1999 L4148.6335 3279.2999 L4150.0035 3278.8399 L4150.9135 3278.8399 L4152.2735 3279.2999 L4153.1835 3280.1999 L4153.6335 3281.5699 L4153.6335 3282.9299 L4153.1835 3284.2999 L4152.7235 3284.7499 L4151.8135 3285.1999 M 4151.3635 3275.3899L4151.8135 3275.8399 L4152.2735 3275.3899 L4151.8135 3274.9299 L4151.3635 3275.3899 M 4144.0935 3265.5699L4153.6335 3270.1099 M 4144.0935 3271.9299L4144.0935 3265.5699 M 4144.0935 3260.2999L4144.5435 3261.6599 L4145.4535 3262.1099 L4146.3635 3262.1099 L4147.2735 3261.6599 L4147.7235 3260.7499 L4148.1835 3258.9299 L4148.6335 3257.5699 L4149.5435 3256.6599 L4150.4535 3256.1999 L4151.8135 3256.1999 L4152.7235 3256.6599 L4153.1835 3257.1099 L4153.6335 3258.4799 L4153.6335 3260.2999 L4153.1835 3261.6599 L4152.7235 3262.1099 L4151.8135 3262.5699 L4150.4535 3262.5699 L4149.5435 3262.1099 L4148.6335 3261.1999 L4148.1835 3259.8399 L4147.7235 3258.0199 L4147.2735 3257.1099 L4146.3635 3256.6599 L4145.4535 3256.6599 L4144.5435 3257.1099 L4144.0935 3258.4799 L4144.0935 3260.2999 M 4145.9135 3253.1999L4145.4535 3252.2999 L4144.0935 3250.9299 L4153.6335 3250.9299 M 4147.2735 3247.9299L4153.6335 3247.9299 M 4149.0935 3247.9299L4147.7235 3246.5699 L4147.2735 3245.6599 L4147.2735 3244.2999 L4147.7235 3243.3899 L4149.0935 3242.9299 L4153.6335 3242.9299 M 4149.0935 3242.9299L4147.7235 3241.5699 L4147.2735 3240.6599 L4147.2735 3239.2999 L4147.7235 3238.3899 L4149.0935 3237.9299 L4153.6335 3237.9299 M 4147.2735 3234.9299L4153.6335 3234.9299 M 4149.0935 3234.9299L4147.7235 3233.5699 L4147.2735 3232.6599 L4147.2735 3231.2999 L4147.7235 3230.3899 L4149.0935 3229.9299 L4153.6335 3229.9299 M 4149.0935 3229.9299L4147.7235 3228.5699 L4147.2735 3227.6599 L4147.2735 3226.2999 L4147.7235 3225.3899 L4149.0935 3224.9299 L4153.6335 3224.9299 M 4131.5 3209 4164.1817 3209 M 4131.5 3310.5 4164.1817 3310.5" stroke-width="0.4" fill="none" c_shapetype="group" layerid="12" c_fontsize="" id="gge2494" locked="0" measuring_type="vertical"/><path d="M4130.1678,3183.649L4050.1678,3183.149M4124.1773,3182.1115L4130.1678,3183.649L4124.1586,3185.1114M4056.1771,3181.6865L4050.1678,3183.149L4056.1583,3184.6864M 4053.8494 3168.8556L4053.8523 3168.3956 L4054.308 3167.4885 L4054.7708 3167.0413 L4055.6836 3166.597 L4057.5035 3166.6084 L4058.4007 3167.064 L4058.8579 3167.5169 L4059.3022 3168.4297 L4059.2965 3169.3397 L4058.8408 3170.2468 L4057.9223 3171.6111 L4053.344 3176.1226 L4059.7139 3176.1624 M 4065.5034 3166.6584L4064.1306 3167.0998 L4063.2121 3168.4541 L4062.7479 3170.7313 L4062.7394 3172.0912 L4063.1752 3174.364 L4064.0766 3175.7397 L4065.4438 3176.1982 L4066.3437 3176.2039 L4067.7165 3175.7624 L4068.6351 3174.3981 L4069.0993 3172.131 L4069.1078 3170.771 L4068.672 3168.4883 L4067.7705 3167.1226 L4066.4034 3166.664 L4065.5034 3166.6584 M 4072.5478 3173.9726L4072.085 3174.4197 L4072.5421 3174.8826 L4072.995 3174.4254 L4072.5478 3173.9726 M 4076.9532 3166.73L4081.9531 3166.7612 L4079.2004 3170.3741 L4080.5704 3170.3827 L4081.4775 3170.8483 L4081.9247 3171.3011 L4082.3662 3172.6639 L4082.3605 3173.5739 L4081.9019 3174.9411 L4080.9863 3175.8454 L4079.6235 3176.2869 L4078.2535 3176.2783 L4076.8964 3175.8198 L4076.4492 3175.357 L4075.9949 3174.4441 M 4085.8488 3169.0556L4085.8517 3168.5956 L4086.3074 3167.6885 L4086.7702 3167.2413 L4087.683 3166.797 L4089.5029 3166.8084 L4090.4001 3167.264 L4090.8573 3167.7169 L4091.3016 3168.6297 L4091.2959 3169.5397 L4090.8402 3170.4468 L4089.9217 3171.8111 L4085.3434 3176.3226 L4091.7132 3176.3624 M 4097.5028 3166.8584L4096.13 3167.2998 L4095.2115 3168.6541 L4094.7473 3170.9313 L4094.7388 3172.2912 L4095.1746 3174.564 L4096.076 3175.9397 L4097.4431 3176.3982 L4098.3431 3176.4039 L4099.7159 3175.9624 L4100.6344 3174.5981 L4101.0986 3172.331 L4101.1071 3170.971 L4100.6714 3168.6883 L4099.7699 3167.3226 L4098.4027 3166.864 L4097.5028 3166.8584 M 4104.1128 3170.0798L4104.073 3176.4397 M 4104.1014 3171.8998L4105.4799 3170.5383 L4106.3827 3170.094 L4107.7527 3170.1025 L4108.6599 3170.5582 L4109.1013 3171.931 L4109.0729 3176.4709 M 4109.1013 3171.931L4110.4798 3170.5696 L4111.3826 3170.1252 L4112.7526 3170.1338 L4113.6598 3170.5895 L4114.1012 3171.9623 L4114.0728 3176.5022 M 4117.1125 3170.161L4117.0728 3176.5209 M 4117.1011 3171.981L4118.4797 3170.6196 L4119.3825 3170.1752 L4120.7524 3170.1838 L4121.6596 3170.6395 L4122.101 3172.0122 L4122.0727 3176.5522 M 4122.101 3172.0122L4123.4796 3170.6508 L4124.3824 3170.2065 L4125.7523 3170.215 L4126.6595 3170.6707 L4127.1009 3172.0435 L4127.0726 3176.5834 M 4130 3210.5 4130.2303 3173.6491 M 4050 3210 4050.2303 3173.1491" stroke-width="0.4" fill="none" c_shapetype="group" layerid="12" c_fontsize="" id="gge2500" locked="0" measuring_type="straight"/><path d="M4176.9004,3209.5L4176.9004,3220.4091M4176.9004,3298.5909L4176.9004,3309.5M4175.4004,3215.5L4176.9004,3209.5L4178.4004,3215.5M4175.4004,3303.5L4176.9004,3309.5L4178.4004,3303.5M 4169.0795 3296.1413L4168.6295 3296.1413 L4167.7195 3295.6813 L4167.2595 3295.2313 L4166.8095 3294.3213 L4166.8095 3292.5013 L4167.2595 3291.5913 L4167.7195 3291.1413 L4168.6295 3290.6813 L4169.5395 3290.6813 L4170.4495 3291.1413 L4171.8095 3292.0413 L4176.3595 3296.5913 L4176.3595 3290.2313 M 4166.8095 3281.7713L4166.8095 3286.3213 L4170.8995 3286.7713 L4170.4495 3286.3213 L4169.9895 3284.9513 L4169.9895 3283.5913 L4170.4495 3282.2313 L4171.3595 3281.3213 L4172.7195 3280.8613 L4173.6295 3280.8613 L4174.9895 3281.3213 L4175.8995 3282.2313 L4176.3595 3283.5913 L4176.3595 3284.9513 L4175.8995 3286.3213 L4175.4495 3286.7713 L4174.5395 3287.2313 M 4174.0795 3277.4113L4174.5395 3277.8613 L4174.9895 3277.4113 L4174.5395 3276.9513 L4174.0795 3277.4113 M 4166.8095 3269.4113L4173.1695 3273.9513 L4173.1695 3267.1413 M 4166.8095 3269.4113L4176.3595 3269.4113 M 4166.8095 3261.4113L4167.2595 3262.7713 L4168.6295 3263.6813 L4170.8995 3264.1413 L4172.2595 3264.1413 L4174.5395 3263.6813 L4175.8995 3262.7713 L4176.3595 3261.4113 L4176.3595 3260.5013 L4175.8995 3259.1413 L4174.5395 3258.2313 L4172.2595 3257.7713 L4170.8995 3257.7713 L4168.6295 3258.2313 L4167.2595 3259.1413 L4166.8095 3260.5013 L4166.8095 3261.4113 M 4166.8095 3252.0413L4167.2595 3253.4113 L4168.6295 3254.3213 L4170.8995 3254.7713 L4172.2595 3254.7713 L4174.5395 3254.3213 L4175.8995 3253.4113 L4176.3595 3252.0413 L4176.3595 3251.1413 L4175.8995 3249.7713 L4174.5395 3248.8613 L4172.2595 3248.4113 L4170.8995 3248.4113 L4168.6295 3248.8613 L4167.2595 3249.7713 L4166.8095 3251.1413 L4166.8095 3252.0413 M 4169.9895 3245.4113L4176.3595 3245.4113 M 4171.8095 3245.4113L4170.4495 3244.0413 L4169.9895 3243.1413 L4169.9895 3241.7713 L4170.4495 3240.8613 L4171.8095 3240.4113 L4176.3595 3240.4113 M 4171.8095 3240.4113L4170.4495 3239.0413 L4169.9895 3238.1413 L4169.9895 3236.7713 L4170.4495 3235.8613 L4171.8095 3235.4113 L4176.3595 3235.4113 M 4169.9895 3232.4113L4176.3595 3232.4113 M 4171.8095 3232.4113L4170.4495 3231.0413 L4169.9895 3230.1413 L4169.9895 3228.7713 L4170.4495 3227.8613 L4171.8095 3227.4113 L4176.3595 3227.4113 M 4171.8095 3227.4113L4170.4495 3226.0413 L4169.9895 3225.1413 L4169.9895 3223.7713 L4170.4495 3222.8613 L4171.8095 3222.4113 L4176.3595 3222.4113 M 4130 3209.5 4186.9004 3209.5 M 4130.5 3309.5 4186.9004 3309.5" stroke-width="0.4" fill="none" c_shapetype="group" layerid="12" c_fontsize="" id="gge2503" locked="0" measuring_type="vertical"/><circle cx="4098.5" cy="3240.886" r="0.591" stroke-width="1.1811" fill="none" layerid="12" id="gge379" locked="0"  /><circle cx="4098.5" cy="3274.386" r="0.591" stroke-width="1.1811" fill="none" layerid="12" id="gge449" locked="0"  /><circle cx="4099.5" cy="3306.886" r="0.591" stroke-width="1.1811" fill="none" layerid="12" id="gge519" locked="0"  /></svg>